<?xml version="1.0" standalone="no"?>
<!DOCTYPE svg PUBLIC "-//W3C//DTD SVG 20010904//EN"
 "http://www.w3.org/TR/2001/REC-SVG-20010904/DTD/svg10.dtd">
<svg version="1.0" xmlns="http://www.w3.org/2000/svg"
 width="1024.000000pt" height="1024.000000pt" viewBox="0 0 1024.000000 1024.000000"
 preserveAspectRatio="xMidYMid meet">

<g transform="translate(0.000000,1024.000000) scale(0.100000,-0.100000)"
fill="#000000" stroke="none">
<path d="M2400 8063 c-284 -22 -568 -148 -776 -346 -199 -188 -334 -434 -379
-691 -13 -77 -15 -307 -15 -1821 0 -1521 2 -1743 15 -1816 87 -465 405 -836
845 -983 212 -71 -15 -66 3035 -66 3028 0 2825 -4 3019 61 351 117 623 369
769 709 40 95 73 205 87 295 5 36 10 769 11 1815 1 1607 0 1762 -16 1835 -53
254 -169 467 -358 656 -169 169 -361 272 -622 332 -90 21 -92 21 -2830 22
-1507 1 -2760 0 -2785 -2z m5622 -131 c242 -61 425 -165 577 -328 132 -142
223 -307 279 -512 l27 -97 3 -1730 c2 -1285 0 -1749 -9 -1805 -17 -111 -66
-274 -110 -366 -154 -325 -423 -533 -816 -631 -63 -16 -264 -17 -2793 -20
-1708 -2 -2755 0 -2805 6 -149 18 -332 80 -455 154 -305 183 -470 405 -562
757 l-23 85 -3 1715 c-2 1508 -1 1727 13 1814 50 322 259 643 516 797 82 49
245 121 324 144 152 45 55 43 2975 41 l2775 -2 87 -22z"/>
<path d="M2450 7785 c-8 -2 -49 -9 -90 -15 -207 -34 -413 -143 -570 -302 -124
-125 -202 -258 -258 -437 l-27 -86 0 -1735 0 -1735 22 -80 c99 -360 348 -619
698 -728 153 -48 182 -48 1450 -45 l1190 3 51 27 c64 33 136 113 161 176 17
45 18 140 21 2351 3 2548 7 2375 -61 2470 -18 25 -55 61 -81 78 -98 66 -29 63
-1320 62 -644 -1 -1178 -3 -1186 -4z m2391 -116 c51 -18 97 -55 122 -102 l22
-42 3 -2290 c2 -1642 -1 -2305 -9 -2343 -7 -38 -22 -66 -46 -92 -68 -76 25
-71 -1348 -68 l-1230 3 -89 28 c-320 100 -550 335 -633 645 l-26 97 -4 1060
-4 1059 41 -61 c118 -177 284 -269 532 -294 138 -13 229 -2 369 47 54 19 102
34 107 34 5 0 20 -28 32 -62 29 -80 59 -139 103 -205 43 -64 28 -77 -37 -32
-59 39 -100 55 -163 64 -100 13 -240 -44 -300 -121 -25 -33 -27 -34 -104 -34
-94 0 -167 -24 -237 -79 -88 -70 -142 -214 -123 -328 l8 -52 -37 -26 c-45 -31
-95 -99 -116 -157 -20 -56 -20 -195 1 -257 8 -26 28 -62 43 -81 l28 -33 -20
-41 c-30 -59 -29 -221 1 -287 26 -58 84 -123 137 -154 58 -33 154 -49 219 -35
59 12 143 65 171 109 19 28 20 29 59 15 149 -53 389 -316 482 -529 42 -97 58
-115 105 -115 72 0 442 134 473 171 23 28 22 51 -7 150 -51 177 -73 399 -56
575 13 144 19 160 63 168 86 16 180 85 248 180 75 106 109 247 83 351 -33 137
-178 261 -330 282 -52 7 -59 23 -10 23 98 0 277 52 431 126 680 324 1209 1122
1146 1729 -14 132 -33 203 -81 301 -71 146 -207 266 -362 322 -136 48 -398 41
-569 -16 l-56 -18 -33 65 c-22 42 -61 94 -109 142 -185 186 -455 233 -806 142
-186 -48 -376 -136 -560 -258 -349 -231 -565 -470 -715 -790 l-47 -100 2 225
c3 261 15 325 90 475 134 271 398 463 715 518 14 2 559 5 1211 6 863 1 1195
-2 1220 -10z m-1427 -149 c155 -39 275 -128 336 -249 17 -35 30 -64 28 -65 -2
-1 -30 -17 -63 -36 -143 -79 -267 -172 -393 -294 l-72 -71 -43 50 c-23 28 -62
70 -87 93 -50 48 -198 151 -248 171 -58 24 -104 -6 -87 -58 3 -11 33 -32 68
-49 79 -37 171 -107 237 -179 94 -103 95 -85 -9 -218 -50 -64 -96 -126 -102
-138 -7 -12 -20 -32 -29 -44 -17 -22 -17 -22 -66 49 -91 134 -210 236 -371
318 -91 47 -135 51 -158 16 -24 -36 -6 -59 64 -85 144 -52 331 -216 422 -370
l36 -60 -58 -117 c-106 -215 -169 -444 -169 -619 l0 -92 -59 -27 c-113 -50
-204 -69 -346 -69 -203 0 -325 42 -435 154 -58 58 -134 180 -166 264 -25 65
-25 292 0 405 79 364 271 665 581 912 174 139 440 294 613 357 192 71 421 91
576 51z m956 -310 c137 -22 282 -118 365 -244 156 -236 134 -629 -56 -1008
-126 -252 -274 -444 -484 -631 -244 -217 -568 -385 -805 -419 -79 -11 -81 -11
-97 12 -42 60 -81 93 -150 127 -65 32 -85 37 -155 39 l-80 2 -32 46 c-105 146
-142 348 -106 567 18 111 92 324 157 456 104 212 308 492 469 644 328 309 675
455 974 409z m-1712 -2224 c26 -13 63 -40 81 -60 19 -20 38 -36 43 -36 4 0 37
20 74 45 62 43 69 45 133 45 133 0 216 -72 245 -210 l13 -64 81 -12 c125 -18
207 -77 256 -183 25 -57 26 -157 1 -216 -23 -55 -64 -107 -77 -99 -6 4 -8 3
-5 -3 10 -16 -44 -60 -118 -95 -62 -29 -82 -33 -172 -36 -89 -4 -111 -1 -182
23 -44 14 -86 23 -93 19 -6 -4 -25 -23 -41 -41 -51 -58 -100 -78 -192 -78 -62
0 -91 5 -129 23 -56 25 -76 18 -76 -29 0 -50 -40 -137 -87 -189 -48 -54 -77
-72 -154 -99 -37 -13 -54 -26 -81 -66 -18 -27 -48 -58 -67 -69 -70 -40 -168
-17 -238 56 -44 46 -63 97 -63 171 0 53 5 71 30 110 17 26 30 50 30 54 0 3
-13 21 -30 39 -58 66 -75 111 -75 199 0 70 4 86 28 128 15 26 48 62 73 80 98
70 96 67 79 112 -8 22 -14 69 -14 105 -1 106 39 168 143 222 44 24 140 30 207
15 35 -8 36 -8 70 49 27 46 45 64 88 86 71 37 151 39 219 4z m304 -1075 c-4
-72 13 -165 35 -182 12 -11 20 -10 41 2 26 14 27 17 27 111 0 60 4 101 12 109
8 7 31 9 72 4 l62 -7 -8 -92 c-12 -141 -7 -361 10 -458 9 -49 29 -125 45 -171
l28 -84 -125 -47 c-69 -25 -154 -55 -188 -65 -61 -19 -62 -19 -68 0 -4 10 -3
24 1 31 4 7 3 10 -1 5 -5 -4 -27 28 -49 71 -54 103 -119 192 -210 289 -42 44
-72 84 -68 88 4 5 2 5 -5 1 -7 -4 -39 15 -75 45 -35 28 -73 56 -85 62 -23 10
-31 27 -14 27 4 0 29 16 55 36 l46 35 87 -68 c243 -192 250 -196 282 -164 12
12 21 27 21 35 0 8 -16 91 -35 185 -19 93 -35 174 -35 179 0 6 12 13 28 17 15
3 45 19 67 35 22 15 42 29 45 29 3 1 3 -26 2 -58z m-292 -31 l38 0 22 -97 c12
-54 24 -106 27 -116 3 -11 -35 13 -95 59 l-100 78 21 43 c14 28 26 42 35 38 7
-3 31 -5 52 -5z"/>
<path d="M4210 5054 c-90 -39 -147 -115 -157 -209 -3 -30 -9 -55 -13 -55 -3 0
-26 -17 -50 -37 -72 -62 -96 -143 -69 -234 26 -86 123 -155 235 -166 50 -5 65
-12 100 -43 83 -76 196 -90 288 -36 60 35 116 121 116 178 0 12 17 36 39 55
55 46 96 132 95 199 -1 65 -44 147 -98 186 -40 29 -122 58 -162 58 -14 0 -42
19 -71 48 -70 69 -170 92 -253 56z m140 -97 c27 -9 41 -24 61 -62 l25 -50 85
-5 c122 -8 169 -44 169 -131 0 -55 -37 -118 -89 -152 -23 -15 -42 -35 -42 -45
-1 -9 -3 -24 -4 -32 -1 -8 -3 -27 -4 -42 -3 -63 -90 -108 -164 -87 -37 11 -81
51 -97 90 -12 29 -13 29 -80 23 -122 -12 -190 33 -190 125 0 58 26 96 79 118
63 26 69 37 64 106 -5 73 14 113 68 140 40 19 71 20 119 4z"/>
<path d="M4202 4913 c-34 -36 -34 -38 -28 -102 4 -53 2 -68 -11 -84 -12 -12
-14 -21 -6 -25 5 -4 13 -17 17 -30 4 -12 11 -20 16 -17 5 3 12 0 16 -6 4 -7 3
-9 -4 -5 -5 3 -13 0 -15 -6 -4 -10 -6 -9 -6 1 -1 11 -6 10 -23 -5 -23 -19 -23
-19 -5 2 21 26 21 26 -2 53 -18 21 -21 21 -49 7 -64 -33 -85 -86 -61 -155 11
-32 26 -42 26 -16 0 8 -5 11 -11 8 -6 -3 -2 3 9 14 11 11 24 18 28 16 4 -3 13
-1 20 5 19 14 49 23 42 12 -3 -6 -13 -10 -21 -10 -8 0 -14 -4 -14 -10 0 -5 -9
-10 -20 -10 -11 0 -20 -3 -21 -7 0 -5 -2 -16 -4 -26 -4 -23 47 -47 98 -47 25
0 37 6 46 23 7 13 9 14 6 4 -4 -15 -1 -17 15 -12 22 7 54 -22 82 -73 19 -37
52 -52 108 -52 77 0 110 33 110 112 0 37 6 46 60 98 32 31 64 69 70 84 37 97
-28 177 -142 175 -40 -1 -47 -3 -28 -9 25 -7 25 -7 -5 -11 -16 -2 -28 -7 -25
-10 3 -4 -4 -17 -15 -30 -19 -21 -19 -22 -1 -15 16 5 17 4 6 -9 -13 -16 -30
-11 -30 9 0 24 -42 35 -70 18 -20 -12 -19 -10 5 11 25 22 32 24 41 12 6 -8 14
-12 17 -8 4 3 7 1 7 -5 0 -6 7 -9 16 -5 14 5 12 8 -7 19 l-24 14 24 -3 c13 -1
26 4 29 12 3 10 -1 12 -16 9 -12 -3 -23 -1 -26 6 -3 7 -5 7 -5 -1 -1 -7 -9
-13 -18 -12 -11 0 -13 3 -5 6 23 9 14 63 -17 94 -26 25 -37 29 -87 29 -52 0
-59 -3 -92 -37z m73 17 c3 -5 -1 -10 -10 -10 -9 0 -13 5 -10 10 3 6 8 10 10
10 2 0 7 -4 10 -10z m-43 -32 c-7 -7 -12 -8 -12 -2 0 6 3 14 7 17 3 4 9 5 12
2 2 -3 -1 -11 -7 -17z m96 -10 c-2 -5 -7 -9 -12 -8 -5 1 -13 -4 -18 -12 -7 -9
-8 -7 -3 7 4 11 8 26 8 32 0 10 4 10 14 1 8 -6 12 -15 11 -20z m-48 12 c8 -5
11 -10 5 -10 -5 0 -17 5 -25 10 -8 5 -10 10 -5 10 6 0 17 -5 25 -10z m-69 -37
c13 -16 12 -17 -3 -4 -17 13 -22 21 -14 21 2 0 10 -8 17 -17z m134 -14 c-3
-12 -7 -24 -10 -27 -3 -3 -3 5 -1 19 6 30 5 29 10 29 3 0 3 -10 1 -21z m39 13
c3 -5 -1 -9 -9 -9 -8 0 -15 4 -15 9 0 4 4 8 9 8 6 0 12 -4 15 -8z m-108 -19
c-2 -10 2 -21 8 -25 8 -6 8 -8 -1 -8 -6 0 -15 5 -18 10 -3 6 -13 10 -21 10
-10 0 -12 -5 -8 -12 5 -9 2 -8 -9 1 -20 16 -18 20 13 26 12 2 25 7 28 10 9 8
10 6 8 -12z m38 -14 c-6 -11 -24 -2 -24 11 0 5 7 7 15 4 8 -4 12 -10 9 -15z
m61 -9 c3 -5 2 -10 -4 -10 -5 0 -13 5 -16 10 -3 6 -2 10 4 10 5 0 13 -4 16
-10z m-156 -14 c9 -11 9 -16 -1 -22 -7 -4 -10 -4 -6 1 4 4 3 14 -3 22 -6 7 -9
13 -6 13 2 0 10 -6 16 -14z m141 -6 c3 0 -3 -5 -14 -11 -14 -9 -22 -8 -34 4
-14 15 -13 16 14 12 16 -2 31 -4 34 -5z m205 0 c3 -5 -1 -10 -10 -10 -9 0 -13
5 -10 10 3 6 8 10 10 10 2 0 7 -4 10 -10z m-42 -17 c-4 -11 -3 -14 5 -9 7 4
12 2 12 -3 0 -6 -4 -11 -9 -11 -14 0 -23 18 -16 30 10 16 15 12 8 -7z m-243 2
c0 -7 -30 -13 -34 -7 -3 4 4 9 15 9 10 1 19 0 19 -2z m303 -10 c-3 -9 -8 -14
-10 -11 -3 3 -2 9 2 15 9 16 15 13 8 -4z m-358 -11 c6 0 22 -2 38 -2 15 -1 27
-6 27 -11 0 -5 -11 -8 -25 -7 -14 0 -25 5 -25 9 0 5 -5 5 -10 2 -6 -4 -8 -11
-5 -16 14 -22 -4 -6 -20 17 -11 17 -12 24 -4 18 8 -5 19 -9 24 -10z m281 -21
c-3 -4 0 -13 7 -22 10 -14 10 -14 -5 -3 -13 10 -17 10 -20 0 -3 -8 -7 -6 -11
5 -4 11 -1 17 8 17 8 0 15 5 15 11 0 5 -4 7 -10 4 -11 -7 -14 8 -3 19 4 3 11
-1 16 -9 5 -9 6 -19 3 -22z m121 -3 c-1 -11 -3 -17 -6 -15 -2 3 -11 -1 -20 -8
-14 -11 -15 -10 -1 7 14 18 13 18 -8 12 -12 -4 -22 -3 -22 2 0 6 11 9 25 7 28
-3 31 4 13 25 -11 12 -10 12 4 1 9 -7 16 -21 15 -31z m23 20 c6 -11 8 -20 6
-20 -3 0 -10 9 -16 20 -6 11 -8 20 -6 20 3 0 10 -9 16 -20z m-236 -42 c-3 -30
10 -38 20 -13 8 23 21 18 61 -21 21 -20 34 -41 31 -50 -7 -19 3 -18 28 4 21
17 21 17 3 -5 -11 -13 -16 -27 -11 -35 4 -7 -2 -5 -14 5 -11 11 -18 25 -16 32
3 7 1 16 -5 20 -6 3 -11 -2 -12 -12 0 -16 -1 -16 -8 2 -5 11 -6 27 -3 35 3 8
2 12 -3 8 -4 -4 -14 0 -22 8 -14 13 -17 13 -28 -2 -13 -18 -37 -11 -34 9 4 37
-2 46 -28 43 -16 -2 -21 -1 -13 1 8 3 19 9 24 13 14 14 34 -13 30 -42z m-75
-18 c5 0 12 6 15 13 4 6 4 2 2 -10 -2 -12 1 -24 7 -26 5 -1 8 -9 5 -17 -3 -10
-13 -2 -30 24 -15 22 -29 33 -33 27 -7 -13 -25 -5 -25 10 0 6 5 7 11 4 6 -4
13 3 17 16 5 23 6 22 14 -8 5 -18 13 -33 17 -33z m206 20 c16 -17 16 -20 3
-15 -9 4 -19 13 -22 21 -7 19 -2 18 19 -6z m-157 -16 c1 -14 -2 -23 -7 -20 -7
5 -8 23 -2 44 3 9 7 -2 9 -24z m-123 7 c-4 -8 24 -24 47 -26 3 0 10 -4 15 -10
4 -6 4 -7 -1 -3 -5 4 -16 2 -24 -5 -10 -8 -13 -8 -9 -1 4 7 1 14 -7 17 -18 7
-28 -3 -16 -17 5 -7 5 -17 0 -26 -9 -13 -10 -13 -11 0 -1 8 -1 18 0 23 0 4 -3
7 -9 7 -5 0 -10 5 -10 11 0 5 5 7 11 3 8 -4 9 0 4 15 -4 13 -2 21 5 21 6 0 9
-4 5 -9z m-68 -23 c-3 -8 -6 -5 -6 6 -1 11 2 17 5 13 3 -3 4 -12 1 -19z m421
-6 c-12 -18 -15 -18 -28 -4 -13 14 -12 15 3 9 11 -4 20 -1 24 9 3 8 8 13 10
10 3 -3 -1 -13 -9 -24z m-502 -10 c-3 -3 0 -12 6 -21 10 -13 10 -14 -2 -4 -16
15 -23 46 -8 37 5 -3 7 -9 4 -12z m341 -1 c0 -11 -5 -18 -9 -15 -4 3 -5 11 -1
19 7 21 12 19 10 -4z m95 -13 c-8 -8 -9 -4 -5 13 4 13 8 18 11 10 2 -7 -1 -18
-6 -23z m98 22 c0 -5 -5 -10 -11 -10 -5 0 -7 5 -4 10 3 6 8 10 11 10 2 0 4 -4
4 -10z m-500 -20 c0 -5 -2 -10 -4 -10 -3 0 -8 5 -11 10 -3 6 -1 10 4 10 6 0
11 -4 11 -10z m257 4 c-3 -3 -12 -4 -19 -1 -8 3 -5 6 6 6 11 1 17 -2 13 -5z
m20 -16 c-3 -8 -6 -5 -6 6 -1 11 2 17 5 13 3 -3 4 -12 1 -19z m-80 -3 c4 -4 2
-5 -4 -1 -16 9 -16 1 -1 -27 10 -19 9 -20 -4 -9 -21 17 -30 50 -12 48 7 -1 17
-6 21 -11z m-257 -2 c-1 -18 -18 -35 -24 -24 -4 6 -12 8 -18 5 -7 -4 -8 -2 -4
4 4 6 14 8 23 5 11 -4 14 -3 9 5 -4 7 -2 12 3 12 6 0 11 -3 11 -7z m291 -16
c-6 -8 -8 -17 -4 -20 3 -4 2 -7 -4 -7 -6 0 -14 7 -17 16 -3 8 -2 12 4 9 6 -3
10 -1 10 4 0 6 5 11 11 11 8 0 9 -4 0 -13z m259 9 c0 -3 -4 -8 -10 -11 -5 -3
-10 -1 -10 4 0 6 5 11 10 11 6 0 10 -2 10 -4z m-205 -16 c4 -6 11 -7 17 -4 7
4 8 2 4 -4 -4 -6 -13 -9 -20 -6 -8 3 -17 1 -21 -5 -3 -7 3 -11 17 -12 15 0 18
-3 8 -6 -8 -4 -20 -13 -27 -22 -7 -9 -13 -11 -13 -6 0 6 -4 4 -9 -4 -6 -9 -8
-5 -8 13 0 14 3 26 8 26 4 0 11 9 14 20 7 22 20 26 30 10z m146 -3 c-6 -8 -7
-18 -3 -22 4 -5 1 -5 -6 -1 -10 6 -10 11 -1 22 6 8 14 14 16 14 3 0 0 -6 -6
-13z m-308 -4 c3 -5 -5 -8 -18 -8 -13 0 -21 3 -18 8 2 4 10 7 18 7 8 0 16 -3
18 -7z m-123 -7 c0 -2 -7 -6 -15 -10 -8 -3 -15 -1 -15 4 0 6 7 10 15 10 8 0
15 -2 15 -4z m55 -15 c-3 -6 -11 -11 -16 -11 -5 0 -4 6 3 14 14 16 24 13 13
-3z m315 -2 c0 -6 -4 -7 -10 -4 -5 3 -10 11 -10 16 0 6 5 7 10 4 6 -3 10 -11
10 -16z m-450 -4 c-7 -8 -18 -15 -24 -14 -7 0 -6 2 2 6 6 2 10 9 6 14 -3 5 2
9 12 9 13 0 14 -3 4 -15z m195 -13 c3 -16 0 -19 -13 -15 -15 6 -15 5 -3 -11 8
-9 20 -15 28 -12 7 3 13 1 13 -4 0 -6 -5 -10 -11 -10 -5 0 -7 -5 -4 -10 4 -6
11 -8 16 -5 5 4 9 1 9 -4 0 -14 -17 -14 -25 0 -4 6 -13 8 -21 5 -8 -3 -14 -1
-14 4 0 6 5 10 11 10 8 0 8 4 -1 15 -9 11 -17 12 -34 4 -21 -11 -21 -11 1 10
12 11 27 21 32 21 6 0 8 8 4 18 -3 9 -3 14 1 11 4 -4 8 -16 11 -27z m218 1
c-7 -2 -13 -10 -13 -17 0 -6 -9 -12 -20 -12 -20 0 -20 1 2 18 13 10 28 17 33
17 6 0 4 -3 -2 -6z m70 -13 c-3 -12 -8 -19 -11 -16 -5 6 5 36 12 36 2 0 2 -9
-1 -20z m-367 -19 c-4 -6 -15 -10 -24 -10 -15 1 -14 2 1 6 12 3 16 10 12 21
-5 13 -3 14 6 5 6 -6 8 -16 5 -22z m344 19 c0 -5 -4 -10 -10 -10 -5 0 -10 5
-10 10 0 6 5 10 10 10 6 0 10 -4 10 -10z m-203 -26 c-3 -3 -12 -4 -19 -1 -8 3
-5 6 6 6 11 1 17 -2 13 -5z m43 2 c0 -2 -7 -7 -16 -10 -8 -3 -12 -2 -9 4 6 10
25 14 25 6z m90 -16 c0 -5 -3 -9 -7 -9 -21 3 -33 -2 -27 -13 5 -7 3 -8 -6 -3
-10 6 -9 11 5 22 22 16 35 17 35 3z m30 1 c0 -6 -4 -12 -8 -15 -5 -3 -9 1 -9
9 0 8 4 15 9 15 4 0 8 -4 8 -9z m-90 -13 c0 -4 -4 -8 -9 -8 -6 0 -12 4 -15 8
-3 5 1 9 9 9 8 0 15 -4 15 -9z m113 -3 c-3 -9 -8 -14 -10 -11 -3 3 -2 9 2 15
9 16 15 13 8 -4z m-343 1 c0 -2 -8 -10 -17 -17 -16 -13 -17 -12 -4 4 13 16 21
21 21 13z m199 -38 c-5 -10 -15 -18 -21 -18 -7 0 -6 5 2 15 10 12 10 18 -1 32
-13 15 -12 15 8 3 17 -11 19 -18 12 -32z m-242 26 c-3 -3 -12 -4 -19 -1 -8 3
-5 6 6 6 11 1 17 -2 13 -5z m323 -14 c0 -5 -5 -10 -11 -10 -5 0 -7 5 -4 10 3
6 8 10 11 10 2 0 4 -4 4 -10z m-10 -40 c-9 -6 -9 -9 1 -13 11 -4 11 -6 1 -6
-7 -1 -15 5 -18 13 -3 8 -13 12 -22 9 -13 -4 -14 -3 -3 5 7 5 22 7 33 4 13 -3
16 -7 8 -12z m60 0 c0 -5 -8 -10 -17 -10 -15 0 -16 2 -3 10 19 12 20 12 20 0z
m-128 -18 c9 -9 9 -12 0 -12 -7 0 -12 -4 -12 -10 0 -5 8 -7 18 -4 14 5 14 4 2
-4 -20 -15 -32 -4 -24 20 3 11 2 18 -3 15 -5 -3 -15 -1 -23 4 -11 7 -10 8 8 6
12 -2 28 -9 34 -15z m128 -12 c0 -5 -4 -10 -10 -10 -5 0 -10 5 -10 10 0 6 5
10 10 10 6 0 10 -4 10 -10z m-70 -30 c0 -5 -5 -10 -11 -10 -5 0 -7 5 -4 10 3
6 8 10 11 10 2 0 4 -4 4 -10z"/>
<path d="M4395 4570 c3 -5 8 -10 11 -10 2 0 4 5 4 10 0 6 -5 10 -11 10 -5 0
-7 -4 -4 -10z"/>
<path d="M4049 4197 c-39 -15 -88 -47 -108 -70 -9 -12 -30 -14 -94 -10 -69 4
-92 1 -141 -17 -80 -30 -146 -96 -176 -176 -52 -138 12 -304 145 -375 25 -13
45 -27 45 -31 0 -3 -47 -100 -105 -214 -58 -114 -105 -211 -105 -216 0 -19 94
-108 165 -157 99 -69 114 -68 193 14 76 78 163 146 238 186 l56 29 39 -44 c84
-95 229 -118 353 -57 69 34 131 94 162 159 26 53 31 186 9 251 -16 48 -16 54
1 98 23 59 23 162 1 229 -33 98 -122 174 -229 195 -49 10 -57 15 -73 47 -28
61 -71 107 -127 137 -43 24 -67 29 -133 32 -50 2 -93 -2 -116 -10z m162 -98
c76 -26 131 -87 143 -159 7 -42 15 -47 85 -48 61 -1 129 -39 165 -90 24 -34
31 -56 34 -107 4 -56 1 -73 -24 -120 -27 -55 -27 -56 -9 -93 26 -55 32 -162
11 -217 -41 -106 -168 -164 -269 -121 -67 28 -137 134 -137 208 0 36 -19 48
-77 48 -95 0 -163 57 -183 153 l-11 55 -87 4 c-58 2 -100 10 -125 22 -81 40
-127 144 -103 236 30 116 149 170 289 131 l48 -14 35 42 c61 71 137 96 215 70z
m-337 -637 c31 -90 104 -150 204 -167 23 -4 42 -12 42 -19 0 -7 -28 -28 -62
-46 -78 -40 -122 -74 -220 -168 l-77 -74 -70 57 -70 56 84 162 c45 89 88 181
95 203 10 33 17 42 36 42 18 0 26 -9 38 -46z"/>
<path d="M4150 4091 c0 -5 3 -11 8 -14 4 -2 0 -2 -8 1 -41 13 -63 14 -56 4 3
-6 -1 -8 -12 -5 -24 6 -97 -60 -89 -81 5 -12 -4 -14 -51 -9 -31 3 -89 6 -128
6 -64 2 -74 -1 -108 -27 -61 -46 -78 -81 -74 -153 5 -78 49 -150 89 -145 18 1
20 0 9 -7 -21 -14 29 -33 102 -39 47 -3 59 -1 64 12 3 9 10 16 15 16 4 0 6 -7
3 -15 -4 -9 0 -15 10 -15 16 0 18 20 3 31 -5 3 -4 23 1 43 10 33 9 36 -11 36
-12 0 -17 4 -12 8 6 4 10 16 10 27 0 19 24 45 55 59 8 3 2 4 -13 1 -19 -4 -26
-2 -22 5 8 13 42 13 50 0 3 -5 -3 -18 -14 -29 -13 -13 -21 -16 -24 -8 -2 7 -9
1 -16 -12 -12 -21 -11 -23 3 -18 9 4 16 2 16 -3 0 -6 -5 -10 -11 -10 -5 0 -7
-5 -4 -10 5 -8 12 -7 23 2 14 11 14 10 -1 -12 -18 -26 -23 -45 -9 -36 5 3 9
-1 9 -8 0 -9 -7 -12 -16 -8 -13 4 -12 1 3 -16 11 -12 14 -22 8 -22 -11 0 -11
-25 1 -36 4 -4 7 -18 7 -31 0 -37 26 -90 44 -90 19 0 20 8 4 26 -7 8 -1 6 15
-4 17 -11 27 -13 27 -6 0 7 5 9 11 5 8 -4 7 -9 -2 -15 -7 -4 -17 -5 -21 -3 -4
3 -8 0 -8 -6 0 -7 -7 -10 -15 -6 -26 10 -16 -12 16 -35 23 -16 49 -23 95 -25
40 -2 64 0 64 7 0 6 -17 8 -43 6 -24 -3 -48 -2 -53 1 -12 9 -14 42 -3 42 5 0
9 -9 9 -20 0 -11 4 -20 9 -20 5 0 8 11 5 24 -3 16 2 29 13 36 17 11 17 11 1 6
-12 -3 -18 0 -18 9 0 19 14 19 29 1 9 -11 8 -18 -4 -30 -12 -12 -13 -16 -3
-16 11 0 11 -2 0 -9 -11 -7 -11 -9 2 -14 9 -4 16 -2 16 2 0 5 8 8 18 7 22 -3
41 -43 59 -122 17 -72 58 -135 105 -161 44 -23 142 -23 186 0 19 11 30 22 26
29 -4 6 -3 8 3 5 14 -9 37 19 28 32 -3 6 -1 19 5 28 9 15 10 14 4 -7 -10 -38
11 -12 25 30 6 19 9 60 7 92 -3 55 -34 148 -48 148 -4 0 -14 16 -22 35 -8 19
-20 35 -26 35 -6 0 -8 -5 -4 -12 4 -6 3 -8 -4 -4 -6 3 -13 2 -17 -4 -3 -5 -11
-10 -16 -10 -13 0 -6 25 7 25 5 1 19 6 32 13 18 10 22 10 20 0 -2 -7 5 -12 15
-11 15 1 18 -4 14 -23 -8 -44 11 -35 37 18 28 56 33 114 15 166 -6 18 -16 29
-22 25 -6 -4 -7 -1 -2 6 10 17 -31 60 -80 82 -46 21 -115 25 -133 7 -14 -14
-44 -20 -36 -7 3 5 9 7 14 4 19 -12 19 16 0 35 -11 11 -20 32 -20 46 0 33 -32
87 -66 109 -14 9 -46 23 -72 31 -56 17 -52 16 -52 5z m3 -69 c-4 -10 -2 -13 5
-8 6 3 13 2 17 -4 9 -14 -18 -13 -33 2 -6 6 -14 9 -17 6 -3 -3 1 -13 10 -22 9
-9 13 -16 8 -16 -5 0 -14 5 -20 11 -8 8 -10 1 -8 -25 2 -38 -6 -41 -12 -4 -2
12 -9 28 -16 37 -8 10 -9 13 0 8 6 -4 15 -2 19 4 9 16 -18 31 -29 16 -6 -9 -7
-8 -5 2 2 8 14 18 26 22 16 6 20 5 15 -7 -3 -9 2 -14 16 -14 19 0 20 3 11 23
-10 20 -10 21 4 4 8 -11 12 -26 9 -35z m-93 28 c0 -5 -8 -10 -17 -10 -15 0
-16 2 -3 10 19 12 20 12 20 0z m142 -42 c-7 -7 -12 -8 -12 -2 0 6 3 14 7 17 3
4 9 5 12 2 2 -3 -1 -11 -7 -17z m-172 -9 c0 -5 -4 -9 -8 -9 -5 0 -9 7 -9 15 0
8 4 12 9 9 4 -3 8 -9 8 -15z m235 1 c3 -5 1 -10 -4 -10 -6 0 -11 5 -11 10 0 6
2 10 4 10 3 0 8 -4 11 -10z m-191 -16 c5 -13 4 -14 -7 -6 -8 7 -17 9 -20 5 -4
-3 -7 -1 -7 5 0 18 27 14 34 -4z m-232 -3 c-7 -5 -9 -38 -3 -59 1 -1 10 2 21
8 11 6 20 8 20 5 0 -11 -24 -30 -41 -33 -13 -2 -16 5 -13 27 4 38 -10 47 -41
27 -21 -14 -24 -14 -19 -1 4 8 13 15 21 15 8 0 12 3 10 8 -3 4 8 7 25 8 16 1
25 -2 20 -5z m398 -1 c0 -5 -5 -10 -11 -10 -5 0 -7 5 -4 10 3 6 8 10 11 10 2
0 4 -4 4 -10z m70 -5 c0 -1 -9 -5 -19 -8 -13 -3 -18 -1 -14 9 4 10 33 10 33
-1z m-425 -5 c4 -6 -1 -7 -11 -3 -13 5 -15 3 -9 -7 5 -9 4 -11 -4 -6 -6 4 -9
12 -6 17 8 12 22 12 30 -1z m371 -16 c-4 -9 -9 -15 -11 -12 -3 3 -3 13 1 22 4
9 9 15 11 12 3 -3 3 -13 -1 -22z m-228 -14 c-1 -27 -2 -28 -14 -12 -10 14 -15
15 -25 5 -19 -19 -34 -16 -18 3 7 8 21 13 31 11 11 -3 18 0 18 9 0 8 2 14 4
14 3 0 4 -13 4 -30z m-108 5 c0 -8 -5 -15 -11 -15 -6 0 -9 -6 -6 -14 3 -8 -1
-20 -9 -26 -17 -15 -18 -10 -2 27 6 15 11 31 10 36 -1 4 3 7 8 7 6 0 10 -7 10
-15z m231 6 c-15 -10 -7 -31 12 -31 7 0 6 4 -3 11 -13 9 -13 10 2 6 9 -3 19 1
22 9 3 8 11 14 17 14 7 0 9 -3 6 -7 -4 -3 1 -12 11 -19 14 -10 15 -15 4 -26
-11 -11 -12 -10 -7 5 9 22 -20 23 -42 2 -12 -12 -18 -13 -29 -4 -20 16 -18 49
4 49 13 0 14 -2 3 -9z m160 -19 c-6 -2 -9 -8 -6 -13 4 -5 -2 -6 -11 -2 -14 5
-16 3 -11 -11 4 -10 7 -22 7 -27 0 -5 9 -4 19 3 11 6 17 19 14 27 -4 14 -4 14
6 1 8 -11 7 -18 -4 -26 -9 -7 -11 -14 -4 -21 6 -6 2 -9 -13 -8 -29 3 -49 -5
-43 -15 3 -5 1 -11 -4 -14 -5 -4 -7 7 -5 24 3 18 1 30 -6 30 -6 0 -8 -5 -4
-12 4 -7 3 -8 -4 -4 -12 7 -5 36 8 36 4 0 12 -10 18 -22 l11 -23 0 23 c1 16
-6 26 -19 29 -11 3 -17 10 -14 15 3 5 12 7 18 5 7 -3 19 -1 27 4 11 7 11 9 1
9 -7 0 -10 5 -7 10 5 8 12 7 22 -2 10 -8 11 -14 4 -16z m-504 3 c0 -8 -4 -12
-9 -9 -5 3 -6 10 -3 15 9 13 12 11 12 -6z m277 -20 c-4 -8 -11 -12 -17 -8 -8
5 -7 8 1 11 7 2 9 9 6 14 -4 7 -2 8 4 4 6 -4 9 -13 6 -21z m-74 11 c0 -3 -4
-8 -10 -11 -5 -3 -10 -1 -10 4 0 6 5 11 10 11 6 0 10 -2 10 -4z m-327 -23 c-3
-7 -9 -10 -14 -7 -14 8 -11 21 5 21 8 0 12 -6 9 -14z m446 3 c9 -10 5 -19 -15
-40 -15 -14 -21 -26 -15 -26 7 0 9 -5 5 -11 -4 -7 -1 -10 7 -7 8 3 13 10 12
16 -2 6 4 9 13 5 12 -5 13 -7 3 -14 -8 -4 -11 -11 -7 -14 3 -3 13 1 22 10 12
12 16 13 17 3 0 -7 2 -21 4 -31 2 -9 -1 -15 -5 -12 -12 8 -26 -25 -25 -57 1
-30 -9 -37 -19 -13 -3 8 -1 15 4 15 5 0 7 7 3 16 -5 13 -10 12 -32 -8 -26 -23
-26 -23 -7 0 23 26 11 29 -17 5 -11 -10 -17 -12 -13 -5 4 6 3 12 -3 12 -5 0
-12 -5 -14 -10 -3 -6 -4 -5 -3 2 2 7 11 13 22 13 10 1 18 7 16 14 -1 7 2 9 9
6 6 -4 3 4 -6 19 -10 14 -22 26 -28 26 -6 0 -7 3 -4 7 4 3 16 -2 27 -12 22
-20 26 -14 9 16 -5 11 -14 17 -19 14 -13 -8 -60 24 -60 41 0 8 4 14 10 14 5 0
7 -6 5 -13 -6 -13 33 -42 43 -32 4 3 0 10 -8 15 -8 6 -10 10 -4 10 5 0 14 -4
20 -10 5 -5 15 -6 23 0 12 7 12 12 3 23 -11 13 -7 27 8 27 4 0 13 -6 19 -14z
m-169 0 c0 -2 -8 -10 -17 -17 -16 -13 -17 -12 -4 4 13 16 21 21 21 13z m30
-11 c11 -13 10 -14 -4 -9 -9 3 -16 10 -16 15 0 13 6 11 20 -6z m65 5 c3 -5 1
-10 -4 -10 -6 0 -11 5 -11 10 0 6 2 10 4 10 3 0 8 -4 11 -10z m165 -26 c0 -3
-6 -1 -13 5 -8 6 -17 8 -21 4 -4 -4 -4 0 -1 10 6 14 9 14 21 2 8 -7 14 -17 14
-21z m-490 8 c0 -12 -3 -12 -15 -2 -8 7 -15 13 -15 15 0 1 7 2 15 2 8 0 15 -7
15 -15z m58 -9 c-6 -7 -12 -13 -13 -13 -2 0 -5 6 -8 13 -3 7 3 13 14 13 13 0
15 -3 7 -13z m-112 -5 c-2 -14 -8 -18 -28 -18 -6 0 -3 7 8 15 23 18 23 18 20
3z m270 -16 c-4 -3 -14 2 -24 12 -16 18 -16 18 6 6 13 -6 21 -14 18 -18z m34
24 c0 -3 -4 -8 -10 -11 -5 -3 -10 -1 -10 4 0 6 5 11 10 11 6 0 10 -2 10 -4z
m-217 -25 c3 -14 1 -18 -9 -14 -15 6 -18 16 -7 26 9 10 10 9 16 -12z m70 -12
c1 3 11 0 21 -6 18 -10 18 -11 -5 -23 -23 -12 -23 -12 -9 5 14 16 13 17 -6 11
-24 -7 -50 16 -38 35 5 9 11 7 21 -7 8 -10 15 -17 16 -15z m67 21 c0 -5 -5
-10 -11 -10 -5 0 -7 5 -4 10 3 6 8 10 11 10 2 0 4 -4 4 -10z m290 2 c0 -4 -11
-8 -24 -8 -14 0 -22 4 -20 8 3 4 14 8 25 8 10 0 19 -4 19 -8z m260 -4 c0 -4
-6 -8 -12 -8 -7 0 -24 -3 -38 -6 l-25 -6 25 14 c28 16 50 19 50 6z m-436 -14
c6 -15 4 -15 -11 -3 -10 7 -20 15 -22 16 -2 2 3 3 11 3 9 0 19 -7 22 -16z
m-101 -11 c-7 -3 -13 -12 -14 -21 0 -11 -2 -13 -6 -4 -6 15 17 46 26 36 3 -4
0 -9 -6 -11z m288 -1 c-11 -4 -11 -6 0 -12 10 -7 10 -13 1 -32 -10 -20 -11
-20 -10 -3 2 11 -1 26 -6 34 -9 13 13 36 24 24 3 -3 -1 -8 -9 -11z m36 4 c-6
-16 16 -40 26 -29 4 3 7 1 7 -5 0 -7 -10 -12 -23 -12 -19 0 -23 5 -21 23 1 12
3 25 3 30 1 4 4 7 7 7 3 0 4 -6 1 -14z m280 -1 c-4 -8 -2 -17 2 -20 9 -5 22
-45 15 -45 -3 0 -9 11 -14 24 -7 18 -14 23 -29 19 -25 -6 -27 0 -5 21 20 20
38 21 31 1z m-193 -3 c-6 -4 -10 -15 -8 -25 1 -9 -2 -15 -7 -11 -5 3 -7 10 -4
15 4 5 0 9 -7 9 -9 0 -9 3 2 10 8 5 20 10 25 10 6 0 5 -3 -1 -8z m146 -3 c0
-5 -6 -9 -12 -9 -7 -1 -3 -9 10 -19 12 -11 22 -23 22 -27 0 -4 -9 1 -19 10
-12 11 -25 15 -32 10 -9 -5 -7 -10 7 -15 17 -7 17 -8 -3 -8 -17 -1 -23 5 -23
19 0 11 -6 20 -12 20 -21 1 17 25 41 27 11 1 21 -2 21 -8z m-764 -15 c-5 -12
-2 -15 11 -10 17 6 17 5 1 -7 -14 -11 -15 -17 -5 -28 7 -7 1 -5 -12 6 -13 11
-25 19 -28 17 -3 -2 -7 -1 -10 1 -2 3 5 8 16 12 12 3 21 11 21 16 0 5 3 9 6 9
3 0 3 -7 0 -16z m54 -5 c0 -14 -17 -10 -23 5 -4 10 -1 13 9 9 7 -3 14 -9 14
-14z m277 5 c-3 -3 -12 -4 -19 -1 -8 3 -5 6 6 6 11 1 17 -2 13 -5z m320 -10
c5 -13 7 -13 14 -2 7 11 9 11 9 -1 0 -8 6 -11 16 -7 8 3 12 2 9 -3 -9 -15 -44
-8 -62 11 -10 12 -12 18 -4 18 6 0 14 -7 18 -16z m-284 -9 c8 -18 -11 -31 -25
-17 -11 11 -3 32 12 32 4 0 10 -7 13 -15z m503 -6 c0 -9 -5 -15 -11 -12 -7 2
-12 10 -12 17 0 7 5 13 12 13 6 0 11 -8 11 -18z m-793 -4 c-3 -9 -8 -14 -10
-11 -3 3 -2 9 2 15 9 16 15 13 8 -4z m236 -10 c1 26 3 27 12 12 5 -9 7 -23 2
-30 -4 -6 -8 -15 -8 -19 0 -16 -15 -20 -15 -4 0 12 -5 16 -14 13 -8 -3 -17 0
-20 8 -3 10 0 12 11 8 12 -5 15 -2 10 9 -3 9 -3 19 1 23 4 4 10 -6 13 -22 l7
-28 1 30z m269 -17 c-10 -10 -16 -23 -13 -28 11 -18 -6 -32 -22 -19 -11 9 -19
10 -32 2 -13 -8 -17 -7 -17 8 0 14 6 17 27 12 15 -3 30 0 33 6 4 6 1 11 -6 11
-8 0 -6 5 5 11 9 5 17 17 17 25 0 12 3 12 13 3 11 -11 10 -16 -5 -31z m225 22
c3 -11 1 -18 -4 -14 -5 3 -9 12 -9 20 0 20 7 17 13 -6z m-756 4 c-3 -3 -12 -4
-19 -1 -8 3 -5 6 6 6 11 1 17 -2 13 -5z m137 -24 c-5 -5 -16 -5 -24 1 -13 9
-12 10 3 5 11 -4 17 0 18 12 0 12 2 13 6 4 3 -8 1 -18 -3 -22z m-207 -9 c0
-11 -6 -17 -14 -14 -16 6 -17 20 0 26 6 3 13 6 14 6 1 1 1 -8 0 -18z m163 -12
c0 20 13 5 17 -21 3 -16 1 -18 -10 -9 -8 6 -17 8 -20 5 -9 -10 16 -32 30 -27
7 3 13 0 13 -7 0 -8 -8 -10 -22 -5 -13 3 -29 7 -36 7 -9 1 -9 6 2 23 9 14 11
27 5 36 -5 8 -9 19 -8 24 0 6 6 -1 14 -15 8 -14 14 -19 15 -11z m323 14 c-6
-16 -5 -17 13 -3 12 9 15 9 7 1 -6 -7 -9 -20 -6 -27 3 -8 1 -14 -5 -14 -11 0
-24 39 -16 52 9 14 14 8 7 -9z m67 7 c0 -5 -5 -10 -11 -10 -5 0 -7 5 -4 10 3
6 8 10 11 10 2 0 4 -4 4 -10z m134 -2 c-5 -8 0 -9 14 -6 14 4 20 2 16 -4 -4
-6 0 -14 7 -19 9 -6 10 -9 2 -9 -6 0 -15 5 -18 10 -3 6 -11 10 -17 10 -7 0 -6
-5 1 -14 9 -10 9 -16 1 -21 -6 -4 -14 -4 -17 -1 -4 3 -1 6 7 6 9 0 10 3 1 13
-6 8 -8 17 -4 20 3 4 -1 7 -10 7 -10 0 -14 -6 -11 -14 3 -8 1 -17 -5 -21 -7
-4 -10 2 -8 16 2 13 12 26 23 30 26 10 26 10 18 -3z m-61 -32 c-3 -4 -9 -2
-14 5 -13 22 -11 31 5 17 8 -7 12 -17 9 -22z m147 9 c0 -13 -14 -35 -22 -35
-5 0 -5 6 1 17 6 12 5 21 -7 31 -15 11 -14 12 6 2 12 -6 22 -12 22 -15z m23
10 c-3 -9 -8 -14 -10 -11 -3 3 -2 9 2 15 9 16 15 13 8 -4z m77 1 c0 -8 -5 -18
-12 -22 -7 -5 -8 -3 -3 6 4 7 2 16 -6 21 -11 7 -10 9 4 9 9 0 17 -6 17 -14z
m-32 -28 c10 -30 10 -31 -3 -14 -8 11 -15 24 -15 29 0 4 -5 5 -12 1 -7 -4 -8
-3 -4 4 12 19 21 14 34 -20z m-804 11 c-3 -6 -2 -14 4 -18 6 -4 5 -11 -4 -19
-12 -11 -14 -9 -14 11 0 13 3 27 7 30 10 11 15 8 7 -4z m96 1 c0 -5 -5 -10
-11 -10 -5 0 -7 5 -4 10 3 6 8 10 11 10 2 0 4 -4 4 -10z m70 -10 c0 -5 -2 -10
-4 -10 -3 0 -8 5 -11 10 -3 6 -1 10 4 10 6 0 11 -4 11 -10z m-194 -22 c0 -10
-1 -18 -3 -18 -1 0 -7 8 -12 18 -7 13 -6 19 2 19 7 0 13 -9 13 -19z m88 7 c-4
-8 -8 -15 -10 -15 -2 0 -4 7 -4 15 0 8 4 15 10 15 5 0 7 -7 4 -15z m326 11 c0
-2 -6 -9 -14 -15 -11 -9 -16 -9 -22 0 -4 7 -3 9 4 5 6 -3 13 -2 17 4 6 10 15
14 15 6z m480 -38 c0 -5 -8 0 -18 10 -11 9 -17 21 -14 25 4 8 31 -22 32 -35z
m-276 24 c3 -5 -1 -9 -9 -9 -8 0 -15 4 -15 9 0 4 4 8 9 8 6 0 12 -4 15 -8z
m-124 -17 c0 -9 -6 -12 -16 -8 -13 5 -13 7 -2 14 17 11 18 11 18 -6z m35 5
c-3 -5 -12 -10 -18 -10 -7 0 -6 4 3 10 19 12 23 12 15 0z m133 -8 c2 -7 -1
-12 -8 -12 -6 0 -9 4 -6 9 4 5 1 12 -4 14 -6 3 -5 4 2 3 6 -1 14 -8 16 -14z
m57 -1 c-3 -6 -14 -10 -23 -10 -15 1 -15 2 1 6 9 2 17 9 17 15 0 6 3 9 6 5 3
-3 3 -10 -1 -16z m-354 -15 c-6 -7 -9 -15 -7 -17 2 -2 -8 -4 -23 -4 -22 0 -27
4 -23 18 3 12 7 15 12 8 3 -7 14 -9 23 -5 9 3 14 11 10 17 -3 6 -1 7 6 3 8 -6
9 -12 2 -20z m84 14 c4 -6 -1 -7 -10 -3 -15 5 -15 3 -4 -15 7 -12 15 -19 17
-17 3 2 17 -4 32 -15 15 -11 30 -17 33 -14 3 3 11 3 17 -1 8 -5 7 -12 -2 -23
-19 -23 -15 -62 8 -79 13 -10 14 -13 3 -13 -8 0 -22 14 -32 31 -10 18 -20 29
-24 25 -4 -3 -17 1 -29 9 -17 11 -24 12 -28 2 -3 -6 -4 -1 -3 12 1 14 8 26 15
27 7 1 8 0 2 -3 -6 -3 -1 -13 12 -25 20 -17 24 -17 34 -4 6 9 13 13 16 11 3
-3 11 2 19 12 12 15 12 16 -2 11 -9 -4 -22 -1 -28 5 -8 8 -11 8 -11 -1 0 -7
-4 -12 -10 -12 -5 0 -7 7 -3 15 3 9 2 15 -3 14 -22 -4 -33 2 -39 20 -3 11 -12
18 -20 15 -7 -3 -16 0 -21 7 -5 9 -2 10 9 6 10 -3 17 -2 17 3 0 13 27 13 35 0z
m325 -5 c0 -8 -2 -15 -4 -15 -2 0 -6 7 -10 15 -3 8 -1 15 4 15 6 0 10 -7 10
-15z m-670 -1 c0 -8 -19 -13 -24 -6 -3 5 1 9 9 9 8 0 15 -2 15 -3z m466 -3
c-4 -5 0 -12 6 -14 8 -3 6 -6 -4 -6 -18 -1 -24 10 -11 22 9 10 15 8 9 -2z m54
4 c0 -2 -6 -8 -13 -14 -10 -8 -14 -7 -14 2 0 8 6 14 14 14 7 0 13 -1 13 -2z
m240 -15 c-9 -6 -8 -10 5 -17 15 -9 16 -11 1 -16 -9 -4 -15 -1 -13 6 1 7 -4
11 -11 9 -10 -2 -10 2 0 17 7 11 16 17 21 14 5 -3 4 -9 -3 -13z m-715 -2 c5 4
5 1 1 -6 -6 -10 -11 -10 -22 -1 -8 6 -14 14 -14 16 0 3 6 0 13 -6 8 -6 18 -7
22 -3z m580 3 c-3 -5 4 -16 15 -24 11 -7 17 -17 13 -20 -3 -4 2 -7 12 -7 14 0
15 -3 5 -15 -7 -8 -22 -15 -34 -14 -19 1 -18 2 4 9 18 6 20 8 7 9 -10 1 -17 7
-14 14 2 6 -3 17 -11 23 -13 10 -10 34 4 34 3 0 3 -4 -1 -9z m88 -12 c4 -3 1
-12 -8 -19 -13 -11 -14 -10 -9 4 5 13 2 15 -12 9 -16 -6 -17 -5 -4 9 8 9 17
13 20 10 3 -4 9 -9 13 -13z m-138 1 c3 -5 1 -10 -4 -10 -6 0 -11 5 -11 10 0 6
2 10 4 10 3 0 8 -4 11 -10z m-385 -9 c0 -5 -7 -11 -14 -14 -10 -4 -13 -1 -9 9
6 15 23 19 23 5z m130 -13 c0 -13 -23 -5 -28 10 -2 7 2 10 12 6 9 -3 16 -11
16 -16z m125 12 c3 -5 1 -10 -4 -10 -6 0 -11 5 -11 10 0 6 2 10 4 10 3 0 8 -4
11 -10z m99 -2 c-3 -4 -11 -8 -19 -8 -7 0 -15 -7 -19 -15 -3 -8 0 -15 7 -15 8
0 7 -4 -3 -10 -21 -13 -24 -5 -11 28 7 16 19 28 31 28 10 0 16 -4 14 -8z m-64
-10 c0 -20 -18 -43 -27 -35 -4 5 -1 12 6 16 7 5 10 14 7 20 -4 6 -2 11 3 11 6
0 11 -6 11 -12z m-261 -19 c-22 -13 -31 -11 -17 5 7 8 17 12 22 9 4 -3 2 -9
-5 -14z m67 2 c1 -6 0 -7 -3 -1 -11 22 -22 -2 -12 -28 13 -33 -3 -17 -18 19
-10 23 -9 25 10 24 11 -1 22 -7 23 -14z m258 -6 c-4 -8 -8 -15 -10 -15 -2 0
-4 7 -4 15 0 8 4 15 10 15 5 0 7 -7 4 -15z m37 6 c-9 -6 -10 -11 -2 -15 6 -4
11 -15 11 -24 0 -12 -4 -10 -14 8 -14 27 -12 40 7 40 8 0 8 -3 -2 -9z m-333
-52 c-3 -8 -7 -3 -11 10 -4 17 -3 21 5 13 5 -5 8 -16 6 -23z m303 7 c-17 -10
-19 -14 -9 -25 11 -10 7 -11 -16 -7 -16 3 -31 8 -35 12 -3 4 2 4 11 1 11 -4
19 0 23 14 4 10 11 17 16 14 5 -4 9 -1 9 5 0 6 5 8 11 4 8 -4 4 -11 -10 -18z
m-331 8 c0 -8 -19 -13 -24 -6 -3 5 1 9 9 9 8 0 15 -2 15 -3z m257 -14 c-3 -10
1 -24 9 -31 8 -6 11 -16 8 -21 -8 -13 -24 13 -30 47 -3 15 0 25 7 25 6 0 9 -9
6 -20z m-167 6 c0 -3 -4 -8 -10 -11 -5 -3 -10 -1 -10 4 0 6 5 11 10 11 6 0 10
-2 10 -4z m407 -13 c-9 -2 -14 -9 -11 -15 4 -7 2 -8 -5 -4 -15 10 -4 26 17 25
15 -1 15 -2 -1 -6z m-507 -7 c0 -2 -7 -7 -16 -10 -8 -3 -12 -2 -9 4 6 10 25
14 25 6z m57 -11 c0 -8 -4 -12 -9 -9 -5 3 -6 10 -3 15 9 13 12 11 12 -6z m59
0 c-11 -8 -24 -15 -29 -15 -5 0 -6 -8 -2 -17 5 -14 3 -15 -6 -6 -13 13 -4 47
10 38 5 -3 12 -1 16 5 3 5 12 10 18 10 7 0 3 -7 -7 -15z m64 0 c0 -1 -6 -8
-14 -14 -11 -9 -15 -7 -19 8 -3 14 0 17 14 14 11 -3 19 -7 19 -8z m214 3 c-3
-5 -12 -7 -20 -4 -10 4 -14 -3 -14 -22 0 -19 -3 -23 -9 -13 -14 22 -1 49 25
49 13 0 21 -5 18 -10z m-366 -23 c-3 -3 -9 2 -12 12 -6 14 -5 15 5 6 7 -7 10
-15 7 -18z m420 3 c-27 -21 -34 -22 -43 -7 -4 6 0 9 11 7 11 -2 18 2 17 7 -1
6 7 11 18 11 19 0 18 -1 -3 -18z m82 8 c0 -3 -4 -8 -10 -11 -5 -3 -10 -1 -10
4 0 6 5 11 10 11 6 0 10 -2 10 -4z m-310 -41 c11 7 14 -8 4 -18 -10 -10 -34 4
-34 20 0 8 -4 11 -10 8 -5 -3 -10 2 -10 12 1 16 3 15 20 -5 11 -13 24 -21 30
-17z m113 4 c3 -12 3 -18 0 -15 -4 3 -12 1 -19 -5 -10 -8 -11 -6 -1 15 14 31
13 31 20 5z m167 15 c0 -8 -19 -13 -24 -6 -3 5 1 9 9 9 8 0 15 -2 15 -3z m47
-11 c-14 -14 -19 -15 -29 -4 -7 8 -8 11 -3 8 6 -3 17 -2 25 4 23 14 26 11 7
-8z m-393 -15 c-5 -7 -2 -9 8 -6 8 4 20 -3 27 -15 11 -18 11 -20 0 -9 -7 6
-21 12 -31 12 -18 0 -24 11 -11 23 10 11 15 8 7 -5z m136 -5 c0 -5 -5 -15 -10
-23 -7 -12 -9 -10 -7 8 1 19 17 33 17 15z m231 -10 c13 -16 12 -17 -3 -4 -15
11 -19 11 -24 -3 -3 -9 -10 -16 -15 -16 -5 0 -4 9 3 20 16 25 22 25 39 3z
m-471 -3 c0 -5 -8 -10 -17 -10 -15 0 -16 2 -3 10 19 12 20 12 20 0z m360 6 c0
-2 -7 -7 -16 -10 -8 -3 -12 -2 -9 4 6 10 25 14 25 6z m32 -50 c-3 -5 -9 -1
-13 10 -12 31 -10 39 5 19 8 -11 12 -24 8 -29z m-197 4 c-5 -8 -11 -8 -17 -2
-6 6 -7 16 -3 22 5 8 11 8 17 2 6 -6 7 -16 3 -22z m319 18 c-3 -4 -12 -8 -20
-8 -8 0 -13 4 -10 8 3 5 12 9 20 9 8 0 13 -4 10 -9z m-150 -23 c-4 -8 -11 -15
-16 -15 -6 0 -5 6 2 15 7 8 14 15 16 15 2 0 1 -7 -2 -15z m71 -13 c-3 -3 -12
-7 -21 -8 -11 -2 -12 1 -5 10 6 7 7 17 3 22 -4 4 1 2 11 -5 9 -8 15 -16 12
-19z m100 8 c3 -5 2 -10 -4 -10 -5 0 -13 5 -16 10 -3 6 -2 10 4 10 5 0 13 -4
16 -10z m-255 -11 c0 -3 -13 -6 -29 -5 -16 1 -27 4 -25 8 6 9 54 6 54 -3z
m190 -19 c-8 -5 -22 -9 -30 -9 -8 0 -5 4 8 10 15 5 21 14 16 21 -5 10 -4 10 7
0 12 -11 12 -14 -1 -22z m-140 4 c0 -8 4 -13 8 -10 5 3 9 -1 9 -9 0 -18 -14
-10 -27 16 -7 13 -7 19 0 19 5 0 10 -7 10 -16z m96 -34 c19 0 18 -16 -2 -24
-8 -3 -12 -2 -9 4 3 6 -2 10 -11 10 -10 0 -15 3 -11 6 3 4 0 13 -8 21 -8 8
-15 19 -15 25 0 6 9 -1 21 -16 11 -14 27 -26 35 -26z m-231 30 c3 -5 13 -6 23
-3 15 5 15 4 -1 -8 -9 -8 -22 -28 -27 -44 l-9 -30 2 33 c1 17 6 32 12 32 5 0
1 7 -9 15 -11 8 -15 15 -9 15 7 0 14 -4 18 -10z m62 -15 c0 -8 -4 -12 -9 -9
-5 3 -6 10 -3 15 9 13 12 11 12 -6z m250 -5 c-1 -10 -3 -17 -6 -15 -2 3 -9 0
-16 -5 -8 -7 -12 -5 -12 5 0 8 4 12 9 9 4 -3 11 2 14 10 8 22 13 20 11 -4z
m-140 -22 c-3 -7 -5 -2 -5 12 0 14 2 19 5 13 2 -7 2 -19 0 -25z m-52 1 c-4 -5
-13 -9 -21 -9 -8 0 -14 -4 -14 -10 0 -5 -5 -10 -11 -10 -8 0 -9 4 0 13 6 8 8
16 5 20 -3 3 4 3 17 0 17 -5 20 -3 14 7 -5 9 -4 11 4 6 6 -4 9 -12 6 -17z
m-69 -31 c4 -6 3 -8 -4 -4 -6 3 -13 2 -17 -4 -3 -5 -12 -10 -18 -10 -7 0 -3 7
7 15 24 18 23 18 32 3z m188 -3 c-4 -8 -11 -15 -16 -15 -6 0 -5 6 2 15 7 8 14
15 16 15 2 0 1 -7 -2 -15z m-88 -13 c1 -7 0 -8 -3 -2 -3 8 -9 7 -19 -1 -12
-10 -13 -9 -8 5 7 18 26 17 30 -2z m190 -9 c-7 -7 -26 7 -26 19 0 6 6 6 15 -2
9 -7 13 -15 11 -17z m-93 -12 c-12 -10 -19 -22 -15 -26 4 -5 1 -5 -7 0 -11 6
-9 12 10 26 31 24 41 24 12 0z m-213 5 c0 -2 -7 -7 -16 -10 -8 -3 -12 -2 -9 4
6 10 25 14 25 6z m275 -6 c3 -5 1 -10 -4 -10 -6 0 -11 5 -11 10 0 6 2 10 4 10
3 0 8 -4 11 -10z m-155 -11 c0 -4 -6 -10 -12 -13 -7 -4 -3 -4 9 -2 13 2 25 1
27 -3 3 -4 -9 -8 -25 -9 -18 -1 -29 3 -29 10 0 9 -3 9 -9 -2 -13 -19 -3 -33
16 -25 13 4 14 3 3 -10 -7 -8 -20 -15 -29 -14 -11 0 -12 2 -3 6 10 4 9 10 -5
26 -10 11 -13 17 -6 14 7 -4 14 0 17 11 6 16 46 26 46 11z m111 -22 c-8 -8
-11 -7 -11 4 0 20 13 34 18 19 3 -7 -1 -17 -7 -23z m-63 -2 c-3 -3 -9 2 -12
12 -6 14 -5 15 5 6 7 -7 10 -15 7 -18z m-138 -20 c14 -19 14 -19 -2 -6 -10 7
-18 18 -18 24 0 6 1 8 3 6 1 -2 9 -13 17 -24z m173 -30 c-7 -21 -12 -19 -10 4
0 11 5 18 9 15 4 -3 5 -11 1 -19z m-28 -3 c-3 -3 -11 0 -18 7 -9 10 -8 11 6 5
10 -3 15 -9 12 -12z"/>
<path d="M4105 3900 c3 -5 11 -10 16 -10 6 0 7 5 4 10 -3 6 -11 10 -16 10 -6
0 -7 -4 -4 -10z"/>
<path d="M4107 3796 c-7 -19 4 -35 19 -29 11 4 12 9 4 18 -9 11 -7 12 9 8 12
-3 21 -1 21 5 0 13 -48 12 -53 -2z"/>
<path d="M4425 3821 c-3 -5 -1 -12 5 -16 5 -3 10 1 10 9 0 18 -6 21 -15 7z"/>
<path d="M4195 3560 c3 -5 8 -10 11 -10 2 0 4 5 4 10 0 6 -5 10 -11 10 -5 0
-7 -4 -4 -10z"/>
<path d="M3828 3483 c7 -3 16 -2 19 1 4 3 -2 6 -13 5 -11 0 -14 -3 -6 -6z"/>
<path d="M2026 6294 c-20 -19 -17 -64 4 -75 8 -4 46 -22 84 -40 95 -43 220
-164 270 -259 41 -77 64 -97 96 -80 63 34 13 148 -125 285 -67 67 -110 100
-170 131 -100 52 -137 61 -159 38z"/>
<path d="M3918 6785 c-18 -39 -2 -56 83 -86 41 -14 94 -38 119 -52 74 -43 173
-131 224 -198 70 -95 74 -99 96 -99 11 0 27 11 36 25 26 40 4 77 -125 206
-105 104 -126 120 -221 168 -64 32 -125 55 -153 58 -43 5 -47 4 -59 -22z"/>
<path d="M3526 6427 c-12 -9 -17 -23 -14 -42 3 -25 11 -32 71 -56 221 -91 430
-281 474 -431 17 -56 50 -73 83 -43 27 25 25 56 -9 124 -82 161 -273 334 -462
420 -84 38 -120 45 -143 28z"/>
<path d="M3187 5883 c-37 -41 -18 -64 88 -108 152 -63 292 -184 370 -320 43
-74 64 -88 96 -59 26 23 24 49 -7 103 -80 137 -233 275 -391 352 -106 51 -133
56 -156 32z"/>
<path d="M2988 4963 c6 -2 18 -2 25 0 6 3 1 5 -13 5 -14 0 -19 -2 -12 -5z"/>
<path d="M1941 4614 c0 -11 3 -14 6 -6 3 7 2 16 -1 19 -3 4 -6 -2 -5 -13z"/>
<path d="M3510 4586 c0 -2 8 -10 18 -17 15 -13 16 -12 3 4 -13 16 -21 21 -21
13z"/>
<path d="M3206 4483 c-6 -14 -5 -15 5 -6 7 7 10 15 7 18 -3 3 -9 -2 -12 -12z"/>
<path d="M3583 4375 c0 -22 2 -30 4 -17 2 12 2 30 0 40 -3 9 -5 -1 -4 -23z"/>
<path d="M2690 4189 c0 -5 5 -7 10 -4 6 3 10 8 10 11 0 2 -4 4 -10 4 -5 0 -10
-5 -10 -11z"/>
<path d="M3148 4073 c7 -3 16 -2 19 1 4 3 -2 6 -13 5 -11 0 -14 -3 -6 -6z"/>
<path d="M3181 3884 c0 -11 3 -14 6 -6 3 7 2 16 -1 19 -3 4 -6 -2 -5 -13z"/>
<path d="M3171 3594 c0 -11 3 -14 6 -6 3 7 2 16 -1 19 -3 4 -6 -2 -5 -13z"/>
<path d="M3176 3487 c3 -10 9 -15 12 -12 3 3 0 11 -7 18 -10 9 -11 8 -5 -6z"/>
<path d="M2595 3844 c-8 -21 -12 -41 -8 -44 51 -45 117 -89 125 -83 6 3 8 1 5
-4 -4 -6 0 -16 8 -23 19 -16 19 -6 0 56 -8 27 -15 59 -15 72 0 13 -4 21 -9 18
-5 -4 -7 2 -4 12 3 14 -3 18 -33 20 -21 2 -41 5 -45 8 -5 3 -15 -12 -24 -32z"/>
<path d="M5541 7779 c-88 -17 -180 -91 -230 -184 l-26 -50 -3 -2325 c-2 -2109
-1 -2330 14 -2376 24 -77 78 -142 154 -183 l65 -36 1154 -3 c1270 -3 1242 -4
1413 58 240 87 436 266 553 505 30 61 65 146 77 190 l23 80 0 1750 0 1750 -28
89 c-60 191 -146 335 -274 456 -164 156 -363 250 -594 280 -92 12 -2236 11
-2298 -1z m2411 -126 c288 -82 515 -277 614 -528 68 -170 64 -56 64 -1928 l0
-1694 -24 -94 c-44 -174 -116 -301 -242 -425 -128 -126 -271 -206 -426 -238
-68 -14 -218 -16 -1230 -16 -1102 0 -1155 1 -1193 19 -47 22 -99 74 -114 114
-8 20 -11 732 -11 2335 0 2226 1 2308 19 2347 24 51 78 103 127 120 33 12 227
14 1189 12 1150 -2 1150 -2 1227 -24z"/>
<path d="M7278 7660 c-170 -31 -323 -109 -441 -225 -54 -52 -115 -131 -139
-179 -11 -23 -22 -43 -24 -45 -1 -1 -43 39 -93 91 -128 134 -235 203 -386 251
-182 57 -359 62 -460 13 -67 -33 -136 -108 -179 -196 -53 -105 -61 -149 -61
-320 0 -131 4 -168 23 -240 57 -208 179 -395 330 -503 l43 -31 -51 -13 c-115
-29 -207 -96 -255 -185 -38 -70 -46 -179 -19 -264 23 -75 94 -167 164 -215
107 -73 277 -111 399 -89 107 19 184 63 323 181 l37 32 34 -26 c52 -39 121
-112 225 -236 l96 -113 50 6 c92 12 125 25 130 49 2 12 11 71 21 131 31 202
99 369 188 463 45 48 52 52 61 36 17 -29 10 -190 -12 -273 -11 -42 -41 -131
-66 -198 -63 -169 -61 -192 20 -192 37 0 46 5 72 38 16 20 48 69 70 109 67
114 108 118 303 27 146 -68 224 -88 305 -81 187 18 314 138 314 298 0 91 -25
146 -105 228 l-65 67 38 22 c209 119 354 376 369 654 5 96 3 114 -20 190 -29
93 -85 188 -138 232 -19 16 -59 41 -89 55 -50 24 -65 26 -180 25 -100 0 -138
-5 -190 -22 -36 -12 -68 -22 -72 -22 -5 0 -8 17 -8 38 0 103 -74 278 -143 338
-23 20 -70 50 -105 66 -54 26 -76 31 -165 34 -56 1 -123 -1 -149 -6z m277
-130 c54 -21 95 -60 125 -121 45 -88 60 -177 60 -353 0 -286 -52 -472 -182
-648 -57 -78 -102 -117 -251 -217 -156 -106 -234 -204 -290 -366 -20 -57 -26
-69 -23 -40 3 22 11 81 16 130 25 211 73 466 95 501 20 31 274 206 287 198 6
-4 8 -3 5 3 -4 6 14 28 40 49 94 77 96 82 59 119 -30 30 -40 28 -131 -40 -139
-102 -215 -155 -215 -147 1 7 26 79 134 387 35 98 55 169 51 182 -6 26 -50 41
-74 26 -17 -11 -89 -189 -149 -371 l-38 -114 -58 124 c-33 67 -66 131 -74 141
-23 26 -60 22 -74 -8 -10 -22 -1 -46 76 -211 l87 -186 -26 -110 c-47 -196 -85
-429 -85 -520 0 -22 -4 -37 -8 -34 -5 3 -12 54 -16 113 -9 155 -37 279 -80
358 -20 36 -52 93 -71 128 -45 83 -65 170 -65 288 0 125 25 226 90 355 79 158
197 273 352 343 140 63 329 82 433 41z m-1404 -76 c46 -14 115 -42 152 -62 73
-38 171 -118 161 -133 -3 -5 1 -7 8 -4 12 5 60 -45 122 -127 28 -37 28 -38 12
-85 -30 -93 -39 -172 -34 -291 7 -144 36 -239 112 -362 71 -114 100 -207 111
-355 3 -44 8 -91 11 -105 2 -14 -42 67 -99 180 -115 230 -212 394 -361 615
-126 186 -280 398 -324 448 -35 38 -68 47 -90 25 -23 -23 -12 -50 56 -142 147
-197 165 -226 125 -195 -16 11 -16 11 -5 -1 7 -8 18 -15 25 -15 25 0 419 -616
404 -631 -7 -7 -189 23 -302 51 -244 58 -377 136 -480 279 -105 148 -165 335
-165 515 0 123 16 198 62 282 79 150 256 190 499 113z m2063 -328 c65 -20 107
-51 144 -105 44 -64 59 -115 67 -216 8 -105 -6 -198 -47 -314 -69 -196 -154
-275 -463 -429 -100 -49 -216 -111 -259 -136 -43 -25 -79 -46 -80 -46 -8 0
210 411 273 515 83 137 129 203 230 330 81 102 91 127 66 155 -31 34 -52 24
-127 -66 -187 -221 -385 -553 -574 -967 -37 -81 -68 -146 -69 -145 -2 2 6 44
17 93 14 68 18 114 14 190 -2 55 -7 107 -10 115 -3 10 24 37 80 80 235 180
340 405 371 794 l8 98 50 20 c114 45 229 58 309 34z m-2052 -962 c88 -27 132
-45 151 -62 38 -34 167 -232 167 -256 0 -2 -23 7 -51 20 -59 29 -356 129 -412
139 -42 8 -77 -13 -77 -46 0 -25 31 -42 120 -69 85 -24 289 -97 309 -109 14
-9 -31 -56 -109 -113 -95 -70 -286 -76 -415 -13 -178 86 -248 319 -128 423
116 102 288 135 445 86z m390 -65 c42 -11 85 -69 132 -179 16 -36 45 -103 67
-150 31 -69 75 -220 64 -220 -1 0 -22 26 -46 58 -23 31 -68 82 -99 112 -46 45
-66 76 -108 169 -28 62 -70 140 -92 173 l-40 60 43 -7 c23 -4 58 -11 79 -16z
m1509 -138 c68 -44 116 -100 130 -151 23 -89 -12 -166 -96 -209 -43 -23 -62
-26 -145 -26 l-95 0 -130 62 c-71 35 -148 66 -170 71 l-40 8 65 44 c55 38 414
229 431 230 3 0 25 -13 50 -29z"/>
<path d="M7363 7533 c9 -2 23 -2 30 0 6 3 -1 5 -18 5 -16 0 -22 -2 -12 -5z"/>
<path d="M6949 7363 c-13 -16 -12 -17 4 -4 9 7 17 15 17 17 0 8 -8 3 -21 -13z"/>
<path d="M6854 7263 c-15 -20 -23 -33 -16 -29 13 8 56 66 49 66 -3 0 -17 -17
-33 -37z"/>
<path d="M7722 7090 c0 -19 2 -27 5 -17 2 9 2 25 0 35 -3 9 -5 1 -5 -18z"/>
<path d="M6736 7045 c-9 -26 -7 -32 5 -12 6 10 9 21 6 23 -2 3 -7 -2 -11 -11z"/>
<path d="M7646 6615 c-9 -26 -7 -32 5 -12 6 10 9 21 6 23 -2 3 -7 -2 -11 -11z"/>
<path d="M7145 6440 c-3 -6 1 -7 9 -4 18 7 21 14 7 14 -6 0 -13 -4 -16 -10z"/>
<path d="M5908 7473 c7 -3 16 -2 19 1 4 3 -2 6 -13 5 -11 0 -14 -3 -6 -6z"/>
<path d="M6595 7079 c-4 -6 -5 -12 -2 -15 2 -3 7 2 10 11 7 17 1 20 -8 4z"/>
<path d="M5651 6774 c0 -11 3 -14 6 -6 3 7 2 16 -1 19 -3 4 -6 -2 -5 -13z"/>
<path d="M6480 6239 c0 -5 10 -9 22 -9 12 0 18 3 14 7 -10 11 -36 12 -36 2z"/>
<path d="M8085 7124 c-69 -9 -143 -27 -183 -45 -38 -18 -42 -23 -41 -52 4 -91
-30 -314 -63 -411 -45 -131 -134 -281 -212 -355 -19 -19 -33 -38 -30 -43 3 -5
1 -7 -4 -6 -16 5 -73 -42 -66 -54 4 -7 3 -8 -4 -4 -7 4 -27 -5 -46 -19 -33
-25 -34 -28 -24 -63 6 -21 8 -86 6 -150 -5 -108 -5 -112 10 -80 149 321 353
686 474 846 27 35 45 68 42 74 -4 6 -3 8 3 5 5 -3 38 28 72 69 60 71 65 75
102 72 21 -1 37 -4 37 -7 -1 -3 2 -13 5 -21 15 -37 11 -66 -10 -83 -35 -29
-23 -47 15 -24 14 9 16 -2 3 -22 -5 -8 -11 -9 -15 -3 -14 23 -44 2 -99 -69
-97 -123 -168 -235 -161 -256 4 -13 3 -14 -4 -5 -7 10 -14 5 -31 -23 -12 -20
-18 -41 -15 -47 4 -6 3 -8 -3 -5 -13 8 -46 -50 -37 -65 4 -6 3 -8 -3 -5 -10 6
-206 -353 -198 -361 2 -2 16 5 32 15 15 11 79 46 140 78 66 34 110 62 106 68
-4 6 0 8 11 4 22 -9 176 68 176 88 0 8 10 19 23 25 21 11 21 10 3 -4 -35 -28
-12 -26 30 3 103 69 200 175 174 191 -8 5 -9 9 -1 14 6 4 11 2 11 -4 0 -6 5
-8 11 -5 6 4 8 14 5 22 -3 8 -2 11 4 8 5 -3 24 38 42 92 31 93 32 106 33 249
l0 151 -36 69 c-19 38 -41 68 -47 67 -7 -2 -11 2 -9 9 3 15 -74 59 -95 54 -9
-2 -18 0 -20 6 -4 11 -69 18 -113 12z m-30 -63 c-3 -6 -11 -11 -16 -11 -5 0
-4 6 3 14 14 16 24 13 13 -3z m112 3 c-3 -3 -12 -4 -19 -1 -8 3 -5 6 6 6 11 1
17 -2 13 -5z m83 -15 c0 -18 2 -19 15 -9 13 11 18 11 28 0 10 -10 9 -11 -2 -5
-9 5 -19 2 -27 -10 -14 -19 -13 -21 -29 30 -2 8 0 15 5 15 6 0 10 -10 10 -21z
m-265 -9 c-3 -5 -12 -10 -18 -10 -7 0 -6 4 3 10 19 12 23 12 15 0z m191 -12
c4 -6 3 -8 -4 -4 -16 9 -21 -6 -11 -33 8 -20 11 -22 27 -10 9 7 14 9 10 5 -4
-5 0 -15 10 -23 9 -8 11 -11 3 -7 -7 4 -23 7 -34 8 -24 1 -40 43 -24 64 12 15
14 15 23 0z m-66 -8 c0 -5 -2 -10 -4 -10 -3 0 -8 5 -11 10 -3 6 -1 10 4 10 6
0 11 -4 11 -10z m105 1 c3 -5 2 -12 -3 -15 -5 -3 -9 1 -9 9 0 17 3 19 12 6z
m105 -1 c0 -5 -5 -10 -11 -10 -5 0 -7 5 -4 10 3 6 8 10 11 10 2 0 4 -4 4 -10z
m-350 -17 c0 -3 -6 -3 -12 0 -7 2 -19 -3 -26 -12 -11 -14 -12 -13 -2 6 6 14
16 20 25 17 8 -4 15 -8 15 -11z m50 -11 c0 -10 -7 -19 -15 -19 -18 0 -19 4 -2
22 16 19 17 18 17 -3z m57 -14 c-3 -8 -6 -5 -6 6 -1 11 2 17 5 13 3 -3 4 -12
1 -19z m-17 -19 c0 -5 4 -8 9 -4 5 3 16 -2 24 -10 9 -8 22 -15 29 -16 11 0 11
-2 0 -6 -7 -3 -22 3 -33 13 -14 12 -19 14 -19 4 0 -9 -5 -7 -13 5 -9 11 -19
15 -27 10 -9 -5 -11 -4 -6 3 9 15 36 16 36 1z m200 1 c0 -5 -7 -7 -15 -4 -8 4
-15 8 -15 10 0 2 7 4 15 4 8 0 15 -4 15 -10z m-75 -20 c3 -5 -1 -10 -10 -10
-9 0 -13 5 -10 10 3 6 8 10 10 10 2 0 7 -4 10 -10z m96 -31 c-9 -23 -9 -22 -8
8 1 18 6 28 10 24 4 -4 3 -18 -2 -32z m-311 2 c-6 -12 -15 -21 -21 -21 -6 0
-3 7 5 16 9 8 16 20 16 26 0 6 3 9 6 6 3 -4 1 -16 -6 -27z m401 6 c-10 -9 -11
-8 -5 6 3 10 9 15 12 12 3 -3 0 -11 -7 -18z m-171 -2 c0 -2 -6 -8 -13 -14 -10
-8 -14 -7 -14 2 0 8 6 14 14 14 7 0 13 -1 13 -2z m33 -3 c-6 -4 -13 -16 -15
-27 -3 -20 -16 -35 -31 -35 -5 0 -1 7 7 16 9 8 16 24 16 35 0 11 7 19 18 19
11 0 13 -3 5 -8z m-177 -14 c4 -7 3 -10 -1 -5 -5 4 -17 0 -27 -10 -10 -9 -18
-13 -18 -8 0 6 29 33 37 35 1 0 5 -6 9 -12z m201 -3 c0 -17 -13 -20 -21 -6 -4
5 0 12 6 14 7 3 13 6 14 6 0 1 1 -6 1 -14z m57 0 c3 -8 1 -15 -4 -15 -6 0 -10
7 -10 15 0 8 2 15 4 15 2 0 6 -7 10 -15z m-379 -15 c3 -5 2 -10 -4 -10 -5 0
-13 5 -16 10 -3 6 -2 10 4 10 5 0 13 -4 16 -10z m319 -26 c3 -8 2 -12 -4 -9
-6 3 -10 10 -10 16 0 14 7 11 14 -7z m-254 -4 c0 -5 -2 -10 -4 -10 -3 0 -8 5
-11 10 -3 6 -1 10 4 10 6 0 11 -4 11 -10z m360 -6 c0 -8 -19 -13 -24 -6 -3 5
1 9 9 9 8 0 15 -2 15 -3z m-133 -36 c-3 -8 -6 -5 -6 6 -1 11 2 17 5 13 3 -3 4
-12 1 -19z m75 3 c-5 -3 -12 -13 -15 -21 -3 -8 -5 -3 -4 11 1 18 6 25 15 21 7
-2 9 -8 4 -11z m-362 -1 c0 -5 -5 -10 -11 -10 -5 0 -7 5 -4 10 3 6 8 10 11 10
2 0 4 -4 4 -10z m330 6 c0 -9 -49 -54 -53 -49 -3 3 -3 -3 -1 -14 4 -13 0 -19
-14 -20 -17 -1 -18 2 -9 20 6 12 24 32 41 44 35 24 36 24 36 19z m-400 -10 c0
-3 -4 -8 -10 -11 -5 -3 -10 -1 -10 4 0 6 5 11 10 11 6 0 10 -2 10 -4z m527
-23 c1 -22 -1 -24 -8 -10 -6 9 -7 22 -4 27 9 14 10 13 12 -17z m-57 11 c0 0
-8 -8 -18 -17 -16 -15 -18 -15 -19 1 -1 11 6 18 18 18 10 0 19 -1 19 -2z m14
-41 c-10 -10 -11 -19 -5 -27 6 -7 6 -17 1 -26 -8 -12 -10 -12 -10 -1 0 7 -6
11 -13 8 -7 -3 -19 4 -26 15 -9 15 -9 19 1 17 28 -3 40 2 35 15 -7 18 1 26 19
19 11 -4 11 -8 -2 -20z m-495 -17 c9 -11 9 -16 -1 -22 -7 -4 -10 -4 -6 1 4 4
3 14 -3 22 -6 7 -9 13 -6 13 2 0 10 -6 16 -14z m539 -11 c-3 -3 -9 2 -12 12
-6 14 -5 15 5 6 7 -7 10 -15 7 -18z m-493 5 c3 -5 2 -10 -4 -10 -5 0 -13 5
-16 10 -3 6 -2 10 4 10 5 0 13 -4 16 -10z m230 1 c3 -5 1 -12 -5 -16 -5 -3
-10 1 -10 9 0 18 6 21 15 7z m110 -1 c3 -5 1 -10 -4 -10 -6 0 -11 5 -11 10 0
6 2 10 4 10 3 0 8 -4 11 -10z m-44 -27 c12 -15 12 -16 -3 -10 -10 3 -20 2 -23
-3 -4 -6 -10 -10 -16 -10 -6 0 15 31 27 39 1 1 8 -7 15 -16z m49 -7 c0 -10
-30 0 -34 11 -4 11 -1 11 14 3 11 -6 20 -12 20 -14z m140 -7 c0 -5 -4 -8 -9
-5 -5 3 -14 -1 -21 -9 -7 -8 -18 -15 -24 -15 -12 0 34 39 47 40 4 0 7 -5 7
-11z m-90 -9 c0 -5 -2 -10 -4 -10 -3 0 -8 5 -11 10 -3 6 -1 10 4 10 6 0 11 -4
11 -10z m-200 -16 c0 -8 -5 -12 -10 -9 -6 4 -18 1 -26 -6 -12 -10 -13 -9 -8 4
3 9 13 18 22 20 10 3 18 5 20 6 1 0 2 -6 2 -15z m144 8 c-5 -4 -12 -11 -15
-15 -3 -5 -9 -2 -12 5 -3 9 3 14 15 15 11 1 16 -1 12 -5z m30 -10 c3 -5 -1 -9
-9 -9 -8 0 -12 4 -9 9 3 4 7 8 9 8 2 0 6 -4 9 -8z m100 -6 c-8 -20 -35 -29
-48 -16 -8 8 -7 9 5 5 9 -3 22 1 29 10 16 19 21 19 14 1z m-158 -39 c8 -4 14
-17 14 -28 0 -11 -5 -17 -10 -14 -6 4 -8 10 -6 14 3 4 -3 13 -14 21 -10 7 -16
20 -12 29 5 13 6 13 10 0 3 -7 11 -18 18 -22z m24 13 c0 -5 -7 -7 -15 -4 -8 4
-15 8 -15 10 0 2 7 4 15 4 8 0 15 -4 15 -10z m53 -4 c3 3 3 -2 1 -13 -3 -10 2
-27 9 -38 13 -17 13 -22 0 -42 -9 -13 -20 -23 -27 -23 -6 0 -4 5 4 10 11 7 12
12 3 21 -8 8 -13 6 -18 -10 -3 -12 -11 -21 -16 -21 -5 0 -3 10 6 23 8 13 12
28 8 33 -5 5 2 0 15 -10 19 -17 22 -17 22 -3 0 10 -4 17 -10 17 -5 0 -10 9
-10 21 0 15 -5 19 -15 15 -17 -6 -18 -4 -9 18 5 12 10 14 19 6 6 -5 14 -7 18
-4z m18 -19 c-10 -9 -11 -8 -5 6 3 10 9 15 12 12 3 -3 0 -11 -7 -18z m77 -2
c-3 -3 -9 2 -12 12 -6 14 -5 15 5 6 7 -7 10 -15 7 -18z m-264 -1 c3 -8 2 -12
-4 -9 -6 3 -10 10 -10 16 0 14 7 11 14 -7z m-24 -2 c0 -5 -7 -9 -15 -9 -8 0
-12 4 -9 9 3 4 9 8 15 8 5 0 9 -4 9 -8z m95 -21 c-6 -5 -25 10 -25 20 0 5 6 4
14 -3 8 -7 12 -15 11 -17z m-147 -1 c-7 -11 -16 -20 -20 -20 -5 0 -8 -7 -8
-15 0 -8 -8 -15 -17 -15 -14 0 -13 4 5 23 12 13 19 27 15 32 -5 4 -3 5 4 1 6
-3 14 -2 18 4 3 5 8 10 11 10 2 0 -1 -9 -8 -20z m100 0 c-15 -23 -24 -25 -34
-8 -4 7 -3 8 5 4 6 -4 14 0 17 8 3 9 10 16 15 16 5 0 4 -9 -3 -20z m192 6 c0
-3 -4 -8 -10 -11 -5 -3 -10 -1 -10 4 0 6 5 11 10 11 6 0 10 -2 10 -4z m-246
-21 c-4 -8 -10 -12 -15 -9 -11 6 -2 24 11 24 5 0 7 -7 4 -15z m75 -9 c-7 -6
-19 -18 -27 -26 -8 -10 -8 -4 3 18 9 18 21 30 26 26 7 -4 6 -10 -2 -18z m211
14 c0 -5 -5 -10 -11 -10 -5 0 -7 5 -4 10 3 6 8 10 11 10 2 0 4 -4 4 -10z
m-280 -47 c0 -2 -8 1 -19 6 -10 6 -20 8 -23 6 -3 -3 -5 1 -5 9 0 12 4 12 24
-1 13 -8 23 -17 23 -20z m134 3 c-3 -9 -10 -16 -15 -16 -6 0 -5 9 1 21 13 24
24 20 14 -5z m103 2 c-3 -8 -6 -5 -6 6 -1 11 2 17 5 13 3 -3 4 -12 1 -19z
m-294 -23 c4 -8 2 -17 -3 -20 -6 -4 -10 3 -10 14 0 25 6 27 13 6z m122 5 c-3
-5 -12 -10 -18 -10 -7 0 -6 4 3 10 19 12 23 12 15 0z m-161 -9 c3 -4 -4 -7
-14 -6 -27 2 -33 10 -10 12 11 1 22 -2 24 -6z m196 -1 c0 -5 -2 -10 -4 -10 -3
0 -8 5 -11 10 -3 6 -1 10 4 10 6 0 11 -4 11 -10z m150 -7 c0 -11 -3 -14 -8 -7
-4 6 -14 14 -22 17 -10 4 -8 6 8 6 15 1 22 -5 22 -16z m-220 -2 c0 -5 -7 -12
-16 -15 -14 -5 -15 -4 -4 9 14 17 20 19 20 6z m174 0 c3 -5 -2 -15 -12 -22
-15 -12 -16 -12 -5 2 7 9 10 19 6 22 -3 4 -4 7 0 7 3 0 8 -4 11 -9z m-125 -18
c0 -11 -3 -13 -6 -5 -2 6 -9 10 -14 6 -5 -3 -9 0 -9 5 0 6 7 11 15 11 8 0 15
-8 14 -17z m-184 -12 c-4 -14 1 -25 19 -37 14 -9 23 -20 20 -26 -10 -16 -55
42 -49 63 4 10 9 19 11 19 3 0 3 -9 -1 -19z m140 -19 c-3 -3 -11 0 -18 7 -9
10 -8 11 6 5 10 -3 15 -9 12 -12z m57 6 c-17 -17 -15 -33 3 -18 8 6 18 9 24 6
5 -3 11 -1 13 5 2 7 9 5 17 -5 12 -14 10 -15 -18 -12 -17 2 -31 -1 -31 -6 0
-6 -8 -7 -17 -4 -11 4 -8 -2 7 -13 23 -19 24 -20 3 -15 -12 3 -24 12 -27 19
-4 13 19 55 32 55 3 0 1 -5 -6 -12z m-122 -13 c11 -13 10 -14 -5 -9 -14 6 -16
4 -10 -6 5 -8 4 -11 -3 -6 -6 4 -9 13 -5 21 7 19 8 19 23 0z m-110 -4 c0 -5 9
-11 21 -14 12 -3 18 -10 14 -16 -4 -8 -11 -6 -21 4 -9 8 -22 15 -30 15 -8 0
-12 5 -9 10 8 12 25 13 25 1z m165 -32 c-20 -22 -34 -47 -31 -55 3 -7 -2 -18
-11 -23 -15 -8 -15 -12 -4 -25 12 -14 11 -16 -4 -10 -14 6 -16 3 -11 -17 6
-20 5 -21 -4 -6 -6 9 -8 22 -5 27 3 5 1 20 -6 32 -9 18 -9 21 1 11 14 -13 43
-6 34 9 -4 5 3 23 15 39 12 16 19 34 16 39 -3 5 0 7 8 4 8 -3 18 -1 22 5 3 6
9 11 12 11 3 0 -11 -18 -32 -41z m175 23 c-8 -3 -18 -10 -22 -16 -5 -6 -8 -2
-8 11 0 17 4 20 22 15 16 -4 18 -7 8 -10z m-345 -22 c3 -5 1 -10 -4 -10 -6 0
-11 5 -11 10 0 6 2 10 4 10 3 0 8 -4 11 -10z m125 -16 c0 -8 -19 -13 -24 -6
-3 5 1 9 9 9 8 0 15 -2 15 -3z m-87 -26 c10 2 16 -2 15 -10 -2 -7 3 -12 10
-10 6 1 12 -2 12 -7 0 -5 -11 -8 -24 -7 -13 0 -22 6 -19 11 2 6 -5 11 -16 12
-15 1 -18 -3 -14 -15 6 -14 5 -15 -9 -2 -18 17 -4 45 16 33 6 -4 19 -6 29 -5z
m47 8 c0 -3 -4 -8 -10 -11 -5 -3 -10 -1 -10 4 0 6 5 11 10 11 6 0 10 -2 10 -4z
m134 -5 c3 -4 -4 -17 -17 -27 -22 -19 -22 -19 -4 2 9 11 14 24 10 27 -3 4 -4
7 0 7 3 0 8 -4 11 -9z m-50 -31 c-6 -6 -10 -3 -10 10 0 13 4 16 10 10 7 -7 7
-13 0 -20z m-184 -4 c0 -3 -4 -8 -10 -11 -5 -3 -10 -1 -10 4 0 6 5 11 10 11 6
0 10 -2 10 -4z m248 -18 c10 -12 10 -18 1 -24 -8 -4 -9 -3 -5 4 4 7 2 12 -3
12 -6 0 -11 8 -11 17 0 9 1 14 3 12 1 -2 8 -11 15 -21z m-218 -13 c11 -13 11
-18 0 -28 -10 -10 -12 -9 -7 5 7 19 -8 34 -18 18 -4 -6 -11 -7 -17 -4 -6 4 -5
10 3 15 19 12 25 11 39 -6z m64 3 c-3 -4 -9 -8 -15 -8 -5 0 -9 4 -9 8 0 5 7 9
15 9 8 0 12 -4 9 -9z m196 2 c0 -5 -4 -10 -10 -10 -5 0 -10 5 -10 10 0 6 5 10
10 10 6 0 10 -4 10 -10z m-360 -15 c0 -8 -7 -15 -15 -15 -13 0 -14 3 -3 15 16
18 18 18 18 0z m40 -5 c0 -5 -2 -10 -4 -10 -3 0 -8 5 -11 10 -3 6 -1 10 4 10
6 0 11 -4 11 -10z m97 -15 c0 -8 -4 -12 -9 -9 -4 3 -8 9 -8 15 0 5 4 9 8 9 5
0 9 -7 9 -15z m194 -8 c-10 -9 -11 -8 -5 6 3 10 9 15 12 12 3 -3 0 -11 -7 -18z
m-33 5 c15 12 16 11 3 -4 -7 -10 -17 -18 -22 -18 -5 0 -9 8 -8 18 0 11 2 12 6
4 4 -10 8 -10 21 0z m-242 -14 c3 -4 -1 -5 -10 -4 -8 1 -18 5 -22 8 -3 4 1 5
10 4 8 -1 18 -5 22 -8z m-126 -8 c0 -5 -2 -10 -4 -10 -3 0 -8 5 -11 10 -3 6
-1 10 4 10 6 0 11 -4 11 -10z m40 6 c0 -3 -4 -8 -10 -11 -5 -3 -10 -1 -10 4 0
6 5 11 10 11 6 0 10 -2 10 -4z m180 -22 c-17 -15 -34 -24 -37 -20 -4 3 -1 6 5
6 6 0 9 7 6 15 -5 11 -2 13 10 9 9 -3 16 -1 16 5 0 6 7 11 16 11 10 0 5 -9
-16 -26z m81 6 c9 13 10 13 6 0 -2 -8 -10 -15 -17 -15 -7 0 -15 7 -17 15 -4
13 -3 13 6 0 10 -13 12 -13 22 0z m-313 -35 c-3 -3 -9 2 -12 12 -6 14 -5 15 5
6 7 -7 10 -15 7 -18z m70 20 c-2 -1 -12 -7 -24 -13 -15 -8 -21 -8 -21 1 0 7
11 13 24 13 14 1 23 1 21 -1z m72 -25 c0 -15 -5 -12 -26 11 -19 22 -19 22 4
10 12 -6 22 -16 22 -21z m63 -14 c3 3 4 -2 3 -12 -3 -21 -21 -30 -31 -15 -9
15 -42 14 -48 -1 -4 -10 -6 -10 -6 -1 -2 21 35 35 49 18 7 -8 17 -15 23 -15 6
0 1 10 -11 23 -12 13 -22 27 -22 33 1 5 9 -1 19 -13 10 -12 21 -20 24 -17z
m-143 10 c0 -2 -7 -7 -16 -10 -8 -3 -12 -2 -9 4 6 10 25 14 25 6z m210 -6 c0
-5 -8 -10 -17 -10 -15 0 -16 2 -3 10 19 12 20 12 20 0z m-255 -10 c-3 -5 -1
-10 6 -10 7 0 10 -2 8 -5 -3 -2 -16 -1 -29 2 -22 6 -23 7 -4 14 26 10 26 10
19 -1z m224 -14 c9 -10 8 -15 -2 -19 -8 -3 -13 3 -13 14 0 23 0 23 15 5z
m-159 -2 c0 -8 -19 -13 -24 -6 -3 5 1 9 9 9 8 0 15 -2 15 -3z m-20 -67 c0 -2
-8 -4 -17 -4 -21 0 -33 15 -26 33 3 9 10 7 24 -7 10 -10 19 -20 19 -22z m40
39 c0 -2 -7 -7 -16 -10 -8 -3 -12 -2 -9 4 6 10 25 14 25 6z m57 -18 c-3 -8 -6
-5 -6 6 -1 11 2 17 5 13 3 -3 4 -12 1 -19z m-158 -12 c7 -8 8 -17 3 -20 -6 -3
-12 3 -15 14 -6 24 -4 25 12 6z m-49 -100 c0 -2 -7 -7 -16 -10 -8 -3 -12 -2
-9 4 6 10 25 14 25 6z"/>
<path d="M8320 6726 c0 -2 7 -7 16 -10 8 -3 12 -2 9 4 -6 10 -25 14 -25 6z"/>
<path d="M5919 6166 c-116 -32 -211 -94 -235 -153 -17 -39 -19 -133 -3 -133 7
0 9 9 6 21 -5 20 -5 20 14 3 20 -18 26 -29 9 -19 -5 3 -10 -1 -10 -10 0 -9 -4
-13 -10 -10 -28 17 12 -72 55 -124 15 -17 56 -47 91 -67 53 -29 79 -37 143
-43 68 -6 78 -4 73 9 -4 12 -2 12 9 -2 12 -14 22 -15 74 -7 66 11 118 38 183
97 l43 39 -48 23 c-40 19 -50 20 -68 9 -17 -11 -18 -10 -8 3 11 12 4 17 -40
32 -127 42 -237 73 -237 68 -1 -4 -7 4 -15 18 -14 25 -18 112 -5 89 6 -8 9 -8
14 0 4 6 19 11 33 11 28 0 200 -49 304 -86 38 -14 74 -22 81 -18 6 4 8 3 5 -3
-6 -10 63 -46 72 -38 7 8 -46 90 -57 88 -6 -2 -9 3 -7 10 2 6 -15 39 -38 72
-41 57 -47 61 -122 87 -44 15 -90 26 -102 24 -12 -2 -20 0 -18 4 4 7 -81 21
-120 19 -11 0 -41 -6 -66 -13z m151 -26 c0 -5 -2 -10 -4 -10 -3 0 -8 5 -11 10
-3 6 -1 10 4 10 6 0 11 -4 11 -10z m-225 -20 c3 -5 1 -10 -4 -10 -6 0 -11 5
-11 10 0 6 2 10 4 10 3 0 8 -4 11 -10z m95 6 c0 -11 -19 -15 -25 -6 -3 5 1 10
9 10 9 0 16 -2 16 -4z m94 -22 c5 -14 4 -15 -9 -4 -17 14 -19 20 -6 20 5 0 12
-7 15 -16z m-33 -11 c13 -16 12 -17 -3 -4 -10 7 -18 15 -18 17 0 8 8 3 21 -13z
m86 -25 c-3 -8 -6 -5 -6 6 -1 11 2 17 5 13 3 -3 4 -12 1 -19z m-101 0 c4 -6 3
-8 -4 -4 -6 3 -13 2 -17 -4 -3 -5 -11 -10 -18 -10 -6 0 -2 7 9 15 23 18 21 17
30 3z m289 3 c3 -5 1 -12 -5 -16 -5 -3 -10 1 -10 9 0 18 6 21 15 7z m-465 -21
c0 -5 -2 -10 -4 -10 -3 0 -8 5 -11 10 -3 6 -1 10 4 10 6 0 11 -4 11 -10z m50
-11 c0 -6 -4 -7 -10 -4 -5 3 -10 11 -10 16 0 6 5 7 10 4 6 -3 10 -11 10 -16z
m33 6 c-3 -9 -8 -14 -10 -11 -3 3 -2 9 2 15 9 16 15 13 8 -4z m180 -10 c-3 -9
-8 -14 -10 -11 -3 3 -2 9 2 15 9 16 15 13 8 -4z m-308 -15 c3 -5 -1 -23 -9
-39 -13 -24 -13 -31 -2 -40 7 -6 16 -9 19 -6 4 3 5 2 2 -2 -8 -11 -35 -12 -36
-2 -5 32 -3 66 3 63 4 -2 10 1 14 7 3 6 0 15 -7 20 -9 6 -10 9 -2 9 6 0 15 -4
18 -10z m50 -9 c-3 -6 -11 -11 -16 -11 -5 0 -4 6 3 14 14 16 24 13 13 -3z m92
-18 c-3 -10 -5 -4 -5 12 0 17 2 24 5 18 2 -7 2 -21 0 -30z m328 27 c3 -6 -1
-7 -9 -4 -18 7 -21 14 -7 14 6 0 13 -4 16 -10z m-544 -43 c-10 -9 -11 -8 -5 6
3 10 9 15 12 12 3 -3 0 -11 -7 -18z m549 19 c0 -2 -6 -9 -14 -15 -11 -9 -16
-9 -22 0 -4 8 -3 9 4 5 7 -4 12 -2 12 3 0 6 5 11 10 11 6 0 10 -2 10 -4z
m-375 -17 c-4 -5 1 -20 11 -32 l18 -22 -23 21 c-20 19 -22 44 -5 44 3 0 2 -5
-1 -11z m-155 -13 c0 -2 -8 -10 -17 -17 -16 -13 -17 -12 -4 4 13 16 21 21 21
13z m210 -28 c0 -6 -6 -5 -15 2 -8 7 -15 14 -15 16 0 2 7 1 15 -2 8 -4 15 -11
15 -16z m-96 -66 c3 -5 -1 -9 -9 -9 -8 0 -12 4 -9 9 3 4 7 8 9 8 2 0 6 -4 9
-8z m-48 -18 c18 -14 18 -15 -4 -4 -12 6 -28 8 -34 4 -7 -4 -8 -3 -4 4 10 16
18 15 42 -4z m162 -30 c-4 -3 -12 5 -18 18 -12 22 -12 22 6 6 10 -10 15 -20
12 -24z m75 19 c-7 -2 -19 -2 -25 0 -7 3 -2 5 12 5 14 0 19 -2 13 -5z m-259
-29 c3 -8 2 -12 -4 -9 -6 3 -10 10 -10 16 0 14 7 11 14 -7z m177 -18 c5 3 9 0
9 -6 0 -7 -7 -10 -15 -6 -8 3 -15 0 -15 -6 0 -6 -2 -9 -5 -6 -3 3 -2 13 2 24
4 11 8 13 11 6 2 -7 8 -10 13 -6z m-191 -6 c0 -5 -2 -10 -4 -10 -3 0 -8 5 -11
10 -3 6 -1 10 4 10 6 0 11 -4 11 -10z m230 -10 c0 -5 -5 -10 -11 -10 -5 0 -7
5 -4 10 3 6 8 10 11 10 2 0 4 -4 4 -10z m-27 -23 c3 -8 -1 -14 -9 -14 -8 0
-14 6 -14 14 0 7 4 13 9 13 5 0 11 -6 14 -13z m120 -2 c-3 -9 -8 -14 -10 -11
-3 3 -2 9 2 15 9 16 15 13 8 -4z m167 0 c0 -8 -4 -15 -10 -15 -5 0 -7 7 -4 15
4 8 8 15 10 15 2 0 4 -7 4 -15z m-137 -10 c-3 -9 -8 -14 -10 -11 -3 3 -2 9 2
15 9 16 15 13 8 -4z m97 -4 c0 -5 -7 -12 -16 -15 -14 -5 -15 -4 -4 9 14 17 20
19 20 6z m-260 -27 c0 -2 -9 -4 -21 -4 -11 0 -18 4 -14 10 5 8 35 3 35 -6z
m297 -9 c-15 -16 -19 -13 -11 9 3 9 10 13 15 10 5 -3 3 -11 -4 -19z m-260 9
c-3 -3 -12 -4 -19 -1 -8 3 -5 6 6 6 11 1 17 -2 13 -5z m123 -8 c0 -3 -4 -8
-10 -11 -5 -3 -10 -1 -10 4 0 6 5 11 10 11 6 0 10 -2 10 -4z m-105 -26 c3 -5
1 -10 -4 -10 -6 0 -11 5 -11 10 0 6 2 10 4 10 3 0 8 -4 11 -10z m38 -10 c-3
-12 -8 -19 -11 -16 -5 6 5 36 12 36 2 0 2 -9 -1 -20z"/>
<path d="M7922 5935 c-48 -23 -80 -44 -75 -49 4 -5 3 -6 -4 -2 -13 7 -188 -84
-256 -134 l-38 -28 52 -15 c29 -9 57 -13 62 -10 6 3 7 1 4 -4 -9 -14 138 -87
154 -77 7 4 9 3 6 -3 -11 -17 88 -36 157 -31 66 6 128 32 162 70 47 51 53 138
13 203 -19 32 -106 105 -136 115 -11 4 -53 -11 -101 -35z m164 -37 c4 4 2 -1
-5 -10 -18 -23 -27 -23 -27 1 0 14 4 17 12 11 6 -6 15 -6 20 -2z m-123 -11
c-3 -5 1 -13 8 -18 10 -6 10 -9 2 -9 -7 0 -17 8 -22 18 -7 14 -6 19 4 19 8 0
11 -5 8 -10z m162 -17 c-3 -5 -12 -10 -18 -10 -7 0 -6 4 3 10 19 12 23 12 15
0z m2 -42 c-3 -8 -6 -5 -6 6 -1 11 2 17 5 13 3 -3 4 -12 1 -19z m-273 -18 c-6
-6 -10 -2 -11 12 -2 16 1 18 10 9 7 -7 8 -14 1 -21z m46 -13 c-8 -9 -10 -8 -5
6 4 10 2 17 -5 17 -6 0 -8 5 -4 11 5 8 10 6 16 -6 7 -11 6 -21 -2 -28z m31 20
c-10 -9 -11 -8 -5 6 3 10 9 15 12 12 3 -3 0 -11 -7 -18z m139 12 c13 -9 12
-10 -2 -5 -10 3 -18 1 -18 -5 0 -6 -5 -7 -10 -4 -11 7 -4 25 8 25 4 0 14 -5
22 -11z m-47 -13 c4 -10 1 -13 -8 -9 -8 3 -12 9 -9 14 7 12 11 11 17 -5z m-18
-34 c-3 -3 -11 0 -18 7 -9 10 -8 11 6 5 10 -3 15 -9 12 -12z m-108 -8 c-3 -3
-12 -4 -19 -1 -8 3 -5 6 6 6 11 1 17 -2 13 -5z m191 -15 c-7 -5 -14 -4 -16 1
-2 6 -9 7 -14 4 -6 -4 -8 -2 -5 4 4 5 16 8 28 5 16 -4 17 -8 7 -14z m-258 -3
c0 -2 -7 -7 -16 -10 -8 -3 -12 -2 -9 4 6 10 25 14 25 6z m74 -12 c3 -8 2 -12
-4 -9 -6 3 -10 10 -10 16 0 14 7 11 14 -7z m125 9 c14 10 14 10 4 -4 -8 -9 -9
-19 -3 -25 6 -6 5 -15 -1 -24 -9 -13 -10 -13 -6 2 3 9 -2 23 -12 32 -17 16
-19 16 -25 0 -4 -9 -9 -14 -13 -11 -3 4 0 14 7 22 9 11 16 13 23 6 7 -7 16 -7
26 2z m102 -36 c-8 -19 -17 -27 -33 -26 l-23 2 23 4 c18 3 23 10 19 24 -3 10
-1 17 4 13 5 -3 9 3 10 13 0 10 3 13 5 7 3 -6 0 -23 -5 -37z m-251 29 c0 -2
-7 -7 -16 -10 -8 -3 -12 -2 -9 4 6 10 25 14 25 6z m70 -32 c0 -7 7 -17 16 -22
14 -8 13 -10 -2 -23 -10 -8 -15 -9 -11 -2 4 6 -2 29 -14 49 -15 27 -16 34 -5
25 9 -7 16 -19 16 -27z m-167 -24 c3 -11 1 -18 -4 -14 -5 3 -9 12 -9 20 0 20
7 17 13 -6z m282 -19 c-6 -5 -25 10 -25 20 0 5 6 4 14 -3 8 -7 12 -15 11 -17z
m-195 -15 c0 -3 -4 -8 -10 -11 -5 -3 -10 -1 -10 4 0 6 5 11 10 11 6 0 10 -2
10 -4z m140 -56 c0 -5 -5 -10 -11 -10 -5 0 -7 5 -4 10 3 6 8 10 11 10 2 0 4
-4 4 -10z"/>
<path d="M7395 5270 c-162 -6 -195 -18 -264 -96 -50 -58 -71 -122 -71 -223 0
-64 -3 -78 -19 -88 -17 -11 -19 -6 -23 90 -7 154 -53 238 -160 291 l-52 26
-551 0 -551 0 -52 -26 c-61 -30 -96 -68 -131 -144 l-26 -55 0 -975 0 -975 24
-52 c13 -29 41 -69 63 -89 80 -72 51 -69 668 -69 551 0 555 0 600 22 25 12 54
30 66 40 42 38 83 106 94 158 8 38 16 54 30 58 16 4 21 -4 30 -46 22 -105 100
-194 191 -221 74 -22 709 -23 814 -1 163 34 312 146 386 290 66 127 64 94 64
1025 l0 845 -25 50 c-13 27 -43 69 -67 92 -73 70 -87 72 -518 75 -209 2 -443
1 -520 -2z m-597 -115 c44 -19 78 -49 100 -90 15 -27 17 -117 20 -968 2 -633
-1 -951 -8 -977 -13 -50 -49 -92 -97 -116 -36 -18 -69 -19 -554 -18 l-516 0
-48 25 c-27 13 -58 37 -69 52 -21 28 -21 39 -24 985 -1 526 0 972 3 990 7 39
58 100 100 118 23 10 142 13 543 14 441 0 518 -2 550 -15z m1515 1 c42 -18 86
-65 101 -110 20 -57 10 -1638 -10 -1721 -42 -170 -199 -309 -379 -335 -88 -12
-666 -13 -719 0 -53 12 -86 38 -116 91 l-25 44 0 955 c0 1045 -3 982 57 1036
59 54 45 53 571 54 392 0 494 -3 520 -14z m-1270 -1873 c-9 -7 -19 -13 -22
-13 -3 0 -5 330 -3 732 2 684 3 734 20 746 16 12 17 -25 20 -720 2 -680 1
-734 -15 -745z"/>
<path d="M6272 4368 c-156 -156 -288 -291 -293 -301 -14 -24 14 -67 42 -67 27
0 597 552 605 587 8 29 -19 63 -50 63 -13 0 -117 -96 -304 -282z"/>
<path d="M6226 3750 c-134 -133 -246 -249 -249 -260 -7 -26 19 -60 46 -60 29
0 517 486 517 515 0 12 -5 26 -12 33 -32 32 -56 14 -302 -228z"/>
<path d="M7736 4473 c-166 -164 -262 -266 -264 -281 -4 -30 14 -52 43 -52 32
0 546 506 545 537 0 25 -25 53 -47 53 -9 0 -133 -116 -277 -257z"/>
<path d="M8054 4127 c-44 -24 -554 -535 -554 -554 0 -26 19 -43 50 -43 20 0
85 58 298 266 230 225 273 271 270 292 -4 35 -36 54 -64 39z"/>
</g>
</svg>
